<?xml version="1.0" encoding="utf-8" standalone="no"?>
<!DOCTYPE svg PUBLIC "-//W3C//DTD SVG 1.1//EN"
  "http://www.w3.org/Graphics/SVG/1.1/DTD/svg11.dtd">
<!-- Created with matplotlib (https://matplotlib.org/) -->
<svg height="530.038125pt" version="1.1" viewBox="0 0 722.417827 530.038125" width="722.417827pt" xmlns="http://www.w3.org/2000/svg" xmlns:xlink="http://www.w3.org/1999/xlink">
 <defs>
  <style type="text/css">
*{stroke-linecap:butt;stroke-linejoin:round;}
  </style>
 </defs>
 <g id="figure_1">
  <g id="patch_1">
   <path d="M 0 530.038125 
L 722.417827 530.038125 
L 722.417827 0 
L 0 0 
z
" style="fill:#ffffff;"/>
  </g>
  <g id="axes_1">
   <g id="patch_2">
    <path d="M 44.845313 506.16 
L 714.445312 506.16 
L 714.445312 7.2 
L 44.845313 7.2 
z
" style="fill:#e5e5e5;"/>
   </g>
   <g id="matplotlib.axis_1">
    <g id="xtick_1">
     <g id="line2d_1">
      <path clip-path="url(#p1fa3ab95c4)" d="M 71.936692 506.16 
L 71.936692 7.2 
" style="fill:none;stroke:#ffffff;stroke-linecap:square;stroke-width:0.8;"/>
     </g>
     <g id="line2d_2">
      <defs>
       <path d="M 0 0 
L 0 3.5 
" id="m6e079f3e65" style="stroke:#555555;stroke-width:0.8;"/>
      </defs>
      <g>
       <use style="fill:#555555;stroke:#555555;stroke-width:0.8;" x="71.936692" xlink:href="#m6e079f3e65" y="506.16"/>
      </g>
     </g>
     <g id="text_1">
      <!-- −0.8 -->
      <defs>
       <path d="M 10.59375 35.5 
L 73.1875 35.5 
L 73.1875 27.203125 
L 10.59375 27.203125 
z
" id="DejaVuSans-8722"/>
       <path d="M 31.78125 66.40625 
Q 24.171875 66.40625 20.328125 58.90625 
Q 16.5 51.421875 16.5 36.375 
Q 16.5 21.390625 20.328125 13.890625 
Q 24.171875 6.390625 31.78125 6.390625 
Q 39.453125 6.390625 43.28125 13.890625 
Q 47.125 21.390625 47.125 36.375 
Q 47.125 51.421875 43.28125 58.90625 
Q 39.453125 66.40625 31.78125 66.40625 
z
M 31.78125 74.21875 
Q 44.046875 74.21875 50.515625 64.515625 
Q 56.984375 54.828125 56.984375 36.375 
Q 56.984375 17.96875 50.515625 8.265625 
Q 44.046875 -1.421875 31.78125 -1.421875 
Q 19.53125 -1.421875 13.0625 8.265625 
Q 6.59375 17.96875 6.59375 36.375 
Q 6.59375 54.828125 13.0625 64.515625 
Q 19.53125 74.21875 31.78125 74.21875 
z
" id="DejaVuSans-48"/>
       <path d="M 10.6875 12.40625 
L 21 12.40625 
L 21 0 
L 10.6875 0 
z
" id="DejaVuSans-46"/>
       <path d="M 31.78125 34.625 
Q 24.75 34.625 20.71875 30.859375 
Q 16.703125 27.09375 16.703125 20.515625 
Q 16.703125 13.921875 20.71875 10.15625 
Q 24.75 6.390625 31.78125 6.390625 
Q 38.8125 6.390625 42.859375 10.171875 
Q 46.921875 13.96875 46.921875 20.515625 
Q 46.921875 27.09375 42.890625 30.859375 
Q 38.875 34.625 31.78125 34.625 
z
M 21.921875 38.8125 
Q 15.578125 40.375 12.03125 44.71875 
Q 8.5 49.078125 8.5 55.328125 
Q 8.5 64.0625 14.71875 69.140625 
Q 20.953125 74.21875 31.78125 74.21875 
Q 42.671875 74.21875 48.875 69.140625 
Q 55.078125 64.0625 55.078125 55.328125 
Q 55.078125 49.078125 51.53125 44.71875 
Q 48 40.375 41.703125 38.8125 
Q 48.828125 37.15625 52.796875 32.3125 
Q 56.78125 27.484375 56.78125 20.515625 
Q 56.78125 9.90625 50.3125 4.234375 
Q 43.84375 -1.421875 31.78125 -1.421875 
Q 19.734375 -1.421875 13.25 4.234375 
Q 6.78125 9.90625 6.78125 20.515625 
Q 6.78125 27.484375 10.78125 32.3125 
Q 14.796875 37.15625 21.921875 38.8125 
z
M 18.3125 54.390625 
Q 18.3125 48.734375 21.84375 45.5625 
Q 25.390625 42.390625 31.78125 42.390625 
Q 38.140625 42.390625 41.71875 45.5625 
Q 45.3125 48.734375 45.3125 54.390625 
Q 45.3125 60.0625 41.71875 63.234375 
Q 38.140625 66.40625 31.78125 66.40625 
Q 25.390625 66.40625 21.84375 63.234375 
Q 18.3125 60.0625 18.3125 54.390625 
z
" id="DejaVuSans-56"/>
      </defs>
      <g style="fill:#555555;" transform="translate(59.795286 520.758438)scale(0.1 -0.1)">
       <use xlink:href="#DejaVuSans-8722"/>
       <use x="83.789062" xlink:href="#DejaVuSans-48"/>
       <use x="147.412109" xlink:href="#DejaVuSans-46"/>
       <use x="179.199219" xlink:href="#DejaVuSans-56"/>
      </g>
     </g>
    </g>
    <g id="xtick_2">
     <g id="line2d_3">
      <path clip-path="url(#p1fa3ab95c4)" d="M 151.352889 506.16 
L 151.352889 7.2 
" style="fill:none;stroke:#ffffff;stroke-linecap:square;stroke-width:0.8;"/>
     </g>
     <g id="line2d_4">
      <g>
       <use style="fill:#555555;stroke:#555555;stroke-width:0.8;" x="151.352889" xlink:href="#m6e079f3e65" y="506.16"/>
      </g>
     </g>
     <g id="text_2">
      <!-- −0.6 -->
      <defs>
       <path d="M 33.015625 40.375 
Q 26.375 40.375 22.484375 35.828125 
Q 18.609375 31.296875 18.609375 23.390625 
Q 18.609375 15.53125 22.484375 10.953125 
Q 26.375 6.390625 33.015625 6.390625 
Q 39.65625 6.390625 43.53125 10.953125 
Q 47.40625 15.53125 47.40625 23.390625 
Q 47.40625 31.296875 43.53125 35.828125 
Q 39.65625 40.375 33.015625 40.375 
z
M 52.59375 71.296875 
L 52.59375 62.3125 
Q 48.875 64.0625 45.09375 64.984375 
Q 41.3125 65.921875 37.59375 65.921875 
Q 27.828125 65.921875 22.671875 59.328125 
Q 17.53125 52.734375 16.796875 39.40625 
Q 19.671875 43.65625 24.015625 45.921875 
Q 28.375 48.1875 33.59375 48.1875 
Q 44.578125 48.1875 50.953125 41.515625 
Q 57.328125 34.859375 57.328125 23.390625 
Q 57.328125 12.15625 50.6875 5.359375 
Q 44.046875 -1.421875 33.015625 -1.421875 
Q 20.359375 -1.421875 13.671875 8.265625 
Q 6.984375 17.96875 6.984375 36.375 
Q 6.984375 53.65625 15.1875 63.9375 
Q 23.390625 74.21875 37.203125 74.21875 
Q 40.921875 74.21875 44.703125 73.484375 
Q 48.484375 72.75 52.59375 71.296875 
z
" id="DejaVuSans-54"/>
      </defs>
      <g style="fill:#555555;" transform="translate(139.211482 520.758438)scale(0.1 -0.1)">
       <use xlink:href="#DejaVuSans-8722"/>
       <use x="83.789062" xlink:href="#DejaVuSans-48"/>
       <use x="147.412109" xlink:href="#DejaVuSans-46"/>
       <use x="179.199219" xlink:href="#DejaVuSans-54"/>
      </g>
     </g>
    </g>
    <g id="xtick_3">
     <g id="line2d_5">
      <path clip-path="url(#p1fa3ab95c4)" d="M 230.769085 506.16 
L 230.769085 7.2 
" style="fill:none;stroke:#ffffff;stroke-linecap:square;stroke-width:0.8;"/>
     </g>
     <g id="line2d_6">
      <g>
       <use style="fill:#555555;stroke:#555555;stroke-width:0.8;" x="230.769085" xlink:href="#m6e079f3e65" y="506.16"/>
      </g>
     </g>
     <g id="text_3">
      <!-- −0.4 -->
      <defs>
       <path d="M 37.796875 64.3125 
L 12.890625 25.390625 
L 37.796875 25.390625 
z
M 35.203125 72.90625 
L 47.609375 72.90625 
L 47.609375 25.390625 
L 58.015625 25.390625 
L 58.015625 17.1875 
L 47.609375 17.1875 
L 47.609375 0 
L 37.796875 0 
L 37.796875 17.1875 
L 4.890625 17.1875 
L 4.890625 26.703125 
z
" id="DejaVuSans-52"/>
      </defs>
      <g style="fill:#555555;" transform="translate(218.627679 520.758438)scale(0.1 -0.1)">
       <use xlink:href="#DejaVuSans-8722"/>
       <use x="83.789062" xlink:href="#DejaVuSans-48"/>
       <use x="147.412109" xlink:href="#DejaVuSans-46"/>
       <use x="179.199219" xlink:href="#DejaVuSans-52"/>
      </g>
     </g>
    </g>
    <g id="xtick_4">
     <g id="line2d_7">
      <path clip-path="url(#p1fa3ab95c4)" d="M 310.185282 506.16 
L 310.185282 7.2 
" style="fill:none;stroke:#ffffff;stroke-linecap:square;stroke-width:0.8;"/>
     </g>
     <g id="line2d_8">
      <g>
       <use style="fill:#555555;stroke:#555555;stroke-width:0.8;" x="310.185282" xlink:href="#m6e079f3e65" y="506.16"/>
      </g>
     </g>
     <g id="text_4">
      <!-- −0.2 -->
      <defs>
       <path d="M 19.1875 8.296875 
L 53.609375 8.296875 
L 53.609375 0 
L 7.328125 0 
L 7.328125 8.296875 
Q 12.9375 14.109375 22.625 23.890625 
Q 32.328125 33.6875 34.8125 36.53125 
Q 39.546875 41.84375 41.421875 45.53125 
Q 43.3125 49.21875 43.3125 52.78125 
Q 43.3125 58.59375 39.234375 62.25 
Q 35.15625 65.921875 28.609375 65.921875 
Q 23.96875 65.921875 18.8125 64.3125 
Q 13.671875 62.703125 7.8125 59.421875 
L 7.8125 69.390625 
Q 13.765625 71.78125 18.9375 73 
Q 24.125 74.21875 28.421875 74.21875 
Q 39.75 74.21875 46.484375 68.546875 
Q 53.21875 62.890625 53.21875 53.421875 
Q 53.21875 48.921875 51.53125 44.890625 
Q 49.859375 40.875 45.40625 35.40625 
Q 44.1875 33.984375 37.640625 27.21875 
Q 31.109375 20.453125 19.1875 8.296875 
z
" id="DejaVuSans-50"/>
      </defs>
      <g style="fill:#555555;" transform="translate(298.043875 520.758438)scale(0.1 -0.1)">
       <use xlink:href="#DejaVuSans-8722"/>
       <use x="83.789062" xlink:href="#DejaVuSans-48"/>
       <use x="147.412109" xlink:href="#DejaVuSans-46"/>
       <use x="179.199219" xlink:href="#DejaVuSans-50"/>
      </g>
     </g>
    </g>
    <g id="xtick_5">
     <g id="line2d_9">
      <path clip-path="url(#p1fa3ab95c4)" d="M 389.601478 506.16 
L 389.601478 7.2 
" style="fill:none;stroke:#ffffff;stroke-linecap:square;stroke-width:0.8;"/>
     </g>
     <g id="line2d_10">
      <g>
       <use style="fill:#555555;stroke:#555555;stroke-width:0.8;" x="389.601478" xlink:href="#m6e079f3e65" y="506.16"/>
      </g>
     </g>
     <g id="text_5">
      <!-- 0.0 -->
      <g style="fill:#555555;" transform="translate(381.649916 520.758438)scale(0.1 -0.1)">
       <use xlink:href="#DejaVuSans-48"/>
       <use x="63.623047" xlink:href="#DejaVuSans-46"/>
       <use x="95.410156" xlink:href="#DejaVuSans-48"/>
      </g>
     </g>
    </g>
    <g id="xtick_6">
     <g id="line2d_11">
      <path clip-path="url(#p1fa3ab95c4)" d="M 469.017675 506.16 
L 469.017675 7.2 
" style="fill:none;stroke:#ffffff;stroke-linecap:square;stroke-width:0.8;"/>
     </g>
     <g id="line2d_12">
      <g>
       <use style="fill:#555555;stroke:#555555;stroke-width:0.8;" x="469.017675" xlink:href="#m6e079f3e65" y="506.16"/>
      </g>
     </g>
     <g id="text_6">
      <!-- 0.2 -->
      <g style="fill:#555555;" transform="translate(461.066112 520.758438)scale(0.1 -0.1)">
       <use xlink:href="#DejaVuSans-48"/>
       <use x="63.623047" xlink:href="#DejaVuSans-46"/>
       <use x="95.410156" xlink:href="#DejaVuSans-50"/>
      </g>
     </g>
    </g>
    <g id="xtick_7">
     <g id="line2d_13">
      <path clip-path="url(#p1fa3ab95c4)" d="M 548.433871 506.16 
L 548.433871 7.2 
" style="fill:none;stroke:#ffffff;stroke-linecap:square;stroke-width:0.8;"/>
     </g>
     <g id="line2d_14">
      <g>
       <use style="fill:#555555;stroke:#555555;stroke-width:0.8;" x="548.433871" xlink:href="#m6e079f3e65" y="506.16"/>
      </g>
     </g>
     <g id="text_7">
      <!-- 0.4 -->
      <g style="fill:#555555;" transform="translate(540.482309 520.758438)scale(0.1 -0.1)">
       <use xlink:href="#DejaVuSans-48"/>
       <use x="63.623047" xlink:href="#DejaVuSans-46"/>
       <use x="95.410156" xlink:href="#DejaVuSans-52"/>
      </g>
     </g>
    </g>
    <g id="xtick_8">
     <g id="line2d_15">
      <path clip-path="url(#p1fa3ab95c4)" d="M 627.850068 506.16 
L 627.850068 7.2 
" style="fill:none;stroke:#ffffff;stroke-linecap:square;stroke-width:0.8;"/>
     </g>
     <g id="line2d_16">
      <g>
       <use style="fill:#555555;stroke:#555555;stroke-width:0.8;" x="627.850068" xlink:href="#m6e079f3e65" y="506.16"/>
      </g>
     </g>
     <g id="text_8">
      <!-- 0.6 -->
      <g style="fill:#555555;" transform="translate(619.898505 520.758438)scale(0.1 -0.1)">
       <use xlink:href="#DejaVuSans-48"/>
       <use x="63.623047" xlink:href="#DejaVuSans-46"/>
       <use x="95.410156" xlink:href="#DejaVuSans-54"/>
      </g>
     </g>
    </g>
    <g id="xtick_9">
     <g id="line2d_17">
      <path clip-path="url(#p1fa3ab95c4)" d="M 707.266264 506.16 
L 707.266264 7.2 
" style="fill:none;stroke:#ffffff;stroke-linecap:square;stroke-width:0.8;"/>
     </g>
     <g id="line2d_18">
      <g>
       <use style="fill:#555555;stroke:#555555;stroke-width:0.8;" x="707.266264" xlink:href="#m6e079f3e65" y="506.16"/>
      </g>
     </g>
     <g id="text_9">
      <!-- 0.8 -->
      <g style="fill:#555555;" transform="translate(699.314702 520.758438)scale(0.1 -0.1)">
       <use xlink:href="#DejaVuSans-48"/>
       <use x="63.623047" xlink:href="#DejaVuSans-46"/>
       <use x="95.410156" xlink:href="#DejaVuSans-56"/>
      </g>
     </g>
    </g>
   </g>
   <g id="matplotlib.axis_2">
    <g id="ytick_1">
     <g id="line2d_19">
      <path clip-path="url(#p1fa3ab95c4)" d="M 44.845313 487.797371 
L 714.445312 487.797371 
" style="fill:none;stroke:#ffffff;stroke-linecap:square;stroke-width:0.8;"/>
     </g>
     <g id="line2d_20">
      <defs>
       <path d="M 0 0 
L -3.5 0 
" id="m0efee07859" style="stroke:#555555;stroke-width:0.8;"/>
      </defs>
      <g>
       <use style="fill:#555555;stroke:#555555;stroke-width:0.8;" x="44.845313" xlink:href="#m0efee07859" y="487.797371"/>
      </g>
     </g>
     <g id="text_10">
      <!-- −1.00 -->
      <defs>
       <path d="M 12.40625 8.296875 
L 28.515625 8.296875 
L 28.515625 63.921875 
L 10.984375 60.40625 
L 10.984375 69.390625 
L 28.421875 72.90625 
L 38.28125 72.90625 
L 38.28125 8.296875 
L 54.390625 8.296875 
L 54.390625 0 
L 12.40625 0 
z
" id="DejaVuSans-49"/>
      </defs>
      <g style="fill:#555555;" transform="translate(7.2 491.59659)scale(0.1 -0.1)">
       <use xlink:href="#DejaVuSans-8722"/>
       <use x="83.789062" xlink:href="#DejaVuSans-49"/>
       <use x="147.412109" xlink:href="#DejaVuSans-46"/>
       <use x="179.199219" xlink:href="#DejaVuSans-48"/>
       <use x="242.822266" xlink:href="#DejaVuSans-48"/>
      </g>
     </g>
    </g>
    <g id="ytick_2">
     <g id="line2d_21">
      <path clip-path="url(#p1fa3ab95c4)" d="M 44.845313 421.237322 
L 714.445312 421.237322 
" style="fill:none;stroke:#ffffff;stroke-linecap:square;stroke-width:0.8;"/>
     </g>
     <g id="line2d_22">
      <g>
       <use style="fill:#555555;stroke:#555555;stroke-width:0.8;" x="44.845313" xlink:href="#m0efee07859" y="421.237322"/>
      </g>
     </g>
     <g id="text_11">
      <!-- −0.75 -->
      <defs>
       <path d="M 8.203125 72.90625 
L 55.078125 72.90625 
L 55.078125 68.703125 
L 28.609375 0 
L 18.3125 0 
L 43.21875 64.59375 
L 8.203125 64.59375 
z
" id="DejaVuSans-55"/>
       <path d="M 10.796875 72.90625 
L 49.515625 72.90625 
L 49.515625 64.59375 
L 19.828125 64.59375 
L 19.828125 46.734375 
Q 21.96875 47.46875 24.109375 47.828125 
Q 26.265625 48.1875 28.421875 48.1875 
Q 40.625 48.1875 47.75 41.5 
Q 54.890625 34.8125 54.890625 23.390625 
Q 54.890625 11.625 47.5625 5.09375 
Q 40.234375 -1.421875 26.90625 -1.421875 
Q 22.3125 -1.421875 17.546875 -0.640625 
Q 12.796875 0.140625 7.71875 1.703125 
L 7.71875 11.625 
Q 12.109375 9.234375 16.796875 8.0625 
Q 21.484375 6.890625 26.703125 6.890625 
Q 35.15625 6.890625 40.078125 11.328125 
Q 45.015625 15.765625 45.015625 23.390625 
Q 45.015625 31 40.078125 35.4375 
Q 35.15625 39.890625 26.703125 39.890625 
Q 22.75 39.890625 18.8125 39.015625 
Q 14.890625 38.140625 10.796875 36.28125 
z
" id="DejaVuSans-53"/>
      </defs>
      <g style="fill:#555555;" transform="translate(7.2 425.036541)scale(0.1 -0.1)">
       <use xlink:href="#DejaVuSans-8722"/>
       <use x="83.789062" xlink:href="#DejaVuSans-48"/>
       <use x="147.412109" xlink:href="#DejaVuSans-46"/>
       <use x="179.199219" xlink:href="#DejaVuSans-55"/>
       <use x="242.822266" xlink:href="#DejaVuSans-53"/>
      </g>
     </g>
    </g>
    <g id="ytick_3">
     <g id="line2d_23">
      <path clip-path="url(#p1fa3ab95c4)" d="M 44.845313 354.677274 
L 714.445312 354.677274 
" style="fill:none;stroke:#ffffff;stroke-linecap:square;stroke-width:0.8;"/>
     </g>
     <g id="line2d_24">
      <g>
       <use style="fill:#555555;stroke:#555555;stroke-width:0.8;" x="44.845313" xlink:href="#m0efee07859" y="354.677274"/>
      </g>
     </g>
     <g id="text_12">
      <!-- −0.50 -->
      <g style="fill:#555555;" transform="translate(7.2 358.476492)scale(0.1 -0.1)">
       <use xlink:href="#DejaVuSans-8722"/>
       <use x="83.789062" xlink:href="#DejaVuSans-48"/>
       <use x="147.412109" xlink:href="#DejaVuSans-46"/>
       <use x="179.199219" xlink:href="#DejaVuSans-53"/>
       <use x="242.822266" xlink:href="#DejaVuSans-48"/>
      </g>
     </g>
    </g>
    <g id="ytick_4">
     <g id="line2d_25">
      <path clip-path="url(#p1fa3ab95c4)" d="M 44.845313 288.117225 
L 714.445312 288.117225 
" style="fill:none;stroke:#ffffff;stroke-linecap:square;stroke-width:0.8;"/>
     </g>
     <g id="line2d_26">
      <g>
       <use style="fill:#555555;stroke:#555555;stroke-width:0.8;" x="44.845313" xlink:href="#m0efee07859" y="288.117225"/>
      </g>
     </g>
     <g id="text_13">
      <!-- −0.25 -->
      <g style="fill:#555555;" transform="translate(7.2 291.916444)scale(0.1 -0.1)">
       <use xlink:href="#DejaVuSans-8722"/>
       <use x="83.789062" xlink:href="#DejaVuSans-48"/>
       <use x="147.412109" xlink:href="#DejaVuSans-46"/>
       <use x="179.199219" xlink:href="#DejaVuSans-50"/>
       <use x="242.822266" xlink:href="#DejaVuSans-53"/>
      </g>
     </g>
    </g>
    <g id="ytick_5">
     <g id="line2d_27">
      <path clip-path="url(#p1fa3ab95c4)" d="M 44.845313 221.557176 
L 714.445312 221.557176 
" style="fill:none;stroke:#ffffff;stroke-linecap:square;stroke-width:0.8;"/>
     </g>
     <g id="line2d_28">
      <g>
       <use style="fill:#555555;stroke:#555555;stroke-width:0.8;" x="44.845313" xlink:href="#m0efee07859" y="221.557176"/>
      </g>
     </g>
     <g id="text_14">
      <!-- 0.00 -->
      <g style="fill:#555555;" transform="translate(15.579688 225.356395)scale(0.1 -0.1)">
       <use xlink:href="#DejaVuSans-48"/>
       <use x="63.623047" xlink:href="#DejaVuSans-46"/>
       <use x="95.410156" xlink:href="#DejaVuSans-48"/>
       <use x="159.033203" xlink:href="#DejaVuSans-48"/>
      </g>
     </g>
    </g>
    <g id="ytick_6">
     <g id="line2d_29">
      <path clip-path="url(#p1fa3ab95c4)" d="M 44.845313 154.997128 
L 714.445312 154.997128 
" style="fill:none;stroke:#ffffff;stroke-linecap:square;stroke-width:0.8;"/>
     </g>
     <g id="line2d_30">
      <g>
       <use style="fill:#555555;stroke:#555555;stroke-width:0.8;" x="44.845313" xlink:href="#m0efee07859" y="154.997128"/>
      </g>
     </g>
     <g id="text_15">
      <!-- 0.25 -->
      <g style="fill:#555555;" transform="translate(15.579688 158.796346)scale(0.1 -0.1)">
       <use xlink:href="#DejaVuSans-48"/>
       <use x="63.623047" xlink:href="#DejaVuSans-46"/>
       <use x="95.410156" xlink:href="#DejaVuSans-50"/>
       <use x="159.033203" xlink:href="#DejaVuSans-53"/>
      </g>
     </g>
    </g>
    <g id="ytick_7">
     <g id="line2d_31">
      <path clip-path="url(#p1fa3ab95c4)" d="M 44.845313 88.437079 
L 714.445312 88.437079 
" style="fill:none;stroke:#ffffff;stroke-linecap:square;stroke-width:0.8;"/>
     </g>
     <g id="line2d_32">
      <g>
       <use style="fill:#555555;stroke:#555555;stroke-width:0.8;" x="44.845313" xlink:href="#m0efee07859" y="88.437079"/>
      </g>
     </g>
     <g id="text_16">
      <!-- 0.50 -->
      <g style="fill:#555555;" transform="translate(15.579688 92.236298)scale(0.1 -0.1)">
       <use xlink:href="#DejaVuSans-48"/>
       <use x="63.623047" xlink:href="#DejaVuSans-46"/>
       <use x="95.410156" xlink:href="#DejaVuSans-53"/>
       <use x="159.033203" xlink:href="#DejaVuSans-48"/>
      </g>
     </g>
    </g>
    <g id="ytick_8">
     <g id="line2d_33">
      <path clip-path="url(#p1fa3ab95c4)" d="M 44.845313 21.87703 
L 714.445312 21.87703 
" style="fill:none;stroke:#ffffff;stroke-linecap:square;stroke-width:0.8;"/>
     </g>
     <g id="line2d_34">
      <g>
       <use style="fill:#555555;stroke:#555555;stroke-width:0.8;" x="44.845313" xlink:href="#m0efee07859" y="21.87703"/>
      </g>
     </g>
     <g id="text_17">
      <!-- 0.75 -->
      <g style="fill:#555555;" transform="translate(15.579688 25.676249)scale(0.1 -0.1)">
       <use xlink:href="#DejaVuSans-48"/>
       <use x="63.623047" xlink:href="#DejaVuSans-46"/>
       <use x="95.410156" xlink:href="#DejaVuSans-55"/>
       <use x="159.033203" xlink:href="#DejaVuSans-53"/>
      </g>
     </g>
    </g>
   </g>
   <g id="PathCollection_1">
    <path clip-path="url(#p1fa3ab95c4)" d="M 587.522402 126.871221 
C 589.182097 126.871221 590.774039 126.211817 591.94762 125.038236 
C 593.121202 123.864654 593.780606 122.272712 593.780606 120.613017 
C 593.780606 118.953322 593.121202 117.361381 591.94762 116.187799 
C 590.774039 115.014217 589.182097 114.354814 587.522402 114.354814 
C 585.862707 114.354814 584.270765 115.014217 583.097184 116.187799 
C 581.923602 117.361381 581.264198 118.953322 581.264198 120.613017 
C 581.264198 122.272712 581.923602 123.864654 583.097184 125.038236 
C 584.270765 126.211817 585.862707 126.871221 587.522402 126.871221 
z
" style="fill:#ff0000;stroke:#000000;stroke-width:0.5;"/>
    <path clip-path="url(#p1fa3ab95c4)" d="M 400.018088 184.959661 
C 401.806858 184.959661 403.522606 184.248975 404.787457 182.984124 
C 406.052309 181.719272 406.762995 180.003525 406.762995 178.214755 
C 406.762995 176.425985 406.052309 174.710237 404.787457 173.445386 
C 403.522606 172.180534 401.806858 171.469848 400.018088 171.469848 
C 398.229318 171.469848 396.513571 172.180534 395.248719 173.445386 
C 393.983868 174.710237 393.273182 176.425985 393.273182 178.214755 
C 393.273182 180.003525 393.983868 181.719272 395.248719 182.984124 
C 396.513571 184.248975 398.229318 184.959661 400.018088 184.959661 
z
" style="fill:#ff0000;stroke:#000000;stroke-width:0.5;"/>
    <path clip-path="url(#p1fa3ab95c4)" d="M 548.721991 130.632904 
C 549.954331 130.632904 551.136364 130.14329 552.007761 129.271893 
C 552.879157 128.400497 553.368771 127.218464 553.368771 125.986124 
C 553.368771 124.753783 552.879157 123.57175 552.007761 122.700354 
C 551.136364 121.828957 549.954331 121.339343 548.721991 121.339343 
C 547.48965 121.339343 546.307617 121.828957 545.436221 122.700354 
C 544.564825 123.57175 544.075211 124.753783 544.075211 125.986124 
C 544.075211 127.218464 544.564825 128.400497 545.436221 129.271893 
C 546.307617 130.14329 547.48965 130.632904 548.721991 130.632904 
z
" style="fill:#ff0000;stroke:#000000;stroke-width:0.5;"/>
    <path clip-path="url(#p1fa3ab95c4)" d="M 498.340713 154.564 
C 500.022892 154.564 501.636399 153.895663 502.825879 152.706183 
C 504.01536 151.516703 504.683696 149.903195 504.683696 148.221016 
C 504.683696 146.538838 504.01536 144.92533 502.825879 143.73585 
C 501.636399 142.54637 500.022892 141.878033 498.340713 141.878033 
C 496.658534 141.878033 495.045026 142.54637 493.855546 143.73585 
C 492.666066 144.92533 491.997729 146.538838 491.997729 148.221016 
C 491.997729 149.903195 492.666066 151.516703 493.855546 152.706183 
C 495.045026 153.895663 496.658534 154.564 498.340713 154.564 
z
" style="fill:#ff0000;stroke:#000000;stroke-width:0.5;"/>
    <path clip-path="url(#p1fa3ab95c4)" d="M 572.712199 150.961852 
C 573.901319 150.961852 575.041896 150.48941 575.882731 149.648575 
C 576.723566 148.80774 577.196008 147.667163 577.196008 146.478043 
C 577.196008 145.288923 576.723566 144.148346 575.882731 143.307511 
C 575.041896 142.466677 573.901319 141.994234 572.712199 141.994234 
C 571.523079 141.994234 570.382503 142.466677 569.541668 143.307511 
C 568.700833 144.148346 568.228391 145.288923 568.228391 146.478043 
C 568.228391 147.667163 568.700833 148.80774 569.541668 149.648575 
C 570.382503 150.48941 571.523079 150.961852 572.712199 150.961852 
z
" style="fill:#ff0000;stroke:#000000;stroke-width:0.5;"/>
    <path clip-path="url(#p1fa3ab95c4)" d="M 406.712976 202.823755 
C 408.165276 202.823755 409.55829 202.24675 410.585221 201.219819 
C 411.612152 200.192888 412.189157 198.799874 412.189157 197.347574 
C 412.189157 195.895274 411.612152 194.502261 410.585221 193.475329 
C 409.55829 192.448398 408.165276 191.871393 406.712976 191.871393 
C 405.260676 191.871393 403.867663 192.448398 402.840731 193.475329 
C 401.8138 194.502261 401.236795 195.895274 401.236795 197.347574 
C 401.236795 198.799874 401.8138 200.192888 402.840731 201.219819 
C 403.867663 202.24675 405.260676 202.823755 406.712976 202.823755 
z
" style="fill:#ff0000;stroke:#000000;stroke-width:0.5;"/>
    <path clip-path="url(#p1fa3ab95c4)" d="M 556.341219 155.585842 
C 557.728362 155.585842 559.058878 155.034724 560.039736 154.053866 
C 561.020594 153.073007 561.571712 151.742491 561.571712 150.355348 
C 561.571712 148.968205 561.020594 147.637689 560.039736 146.656831 
C 559.058878 145.675973 557.728362 145.124855 556.341219 145.124855 
C 554.954076 145.124855 553.62356 145.675973 552.642701 146.656831 
C 551.661843 147.637689 551.110725 148.968205 551.110725 150.355348 
C 551.110725 151.742491 551.661843 153.073007 552.642701 154.053866 
C 553.62356 155.034724 554.954076 155.585842 556.341219 155.585842 
z
" style="fill:#ff0000;stroke:#000000;stroke-width:0.5;"/>
    <path clip-path="url(#p1fa3ab95c4)" d="M 400.292223 105.944949 
C 401.173297 105.944949 402.018403 105.594895 402.641416 104.971882 
C 403.26443 104.348868 403.614484 103.503762 403.614484 102.622688 
C 403.614484 101.741614 403.26443 100.896508 402.641416 100.273495 
C 402.018403 99.650481 401.173297 99.300427 400.292223 99.300427 
C 399.411149 99.300427 398.566043 99.650481 397.943029 100.273495 
C 397.320016 100.896508 396.969961 101.741614 396.969961 102.622688 
C 396.969961 103.503762 397.320016 104.348868 397.943029 104.971882 
C 398.566043 105.594895 399.411149 105.944949 400.292223 105.944949 
z
" style="fill:#ff0000;stroke:#000000;stroke-width:0.5;"/>
    <path clip-path="url(#p1fa3ab95c4)" d="M 557.469599 212.058863 
C 559.007853 212.058863 560.483311 211.447708 561.571021 210.359998 
C 562.658731 209.272288 563.269885 207.79683 563.269885 206.258576 
C 563.269885 204.720322 562.658731 203.244864 561.571021 202.157154 
C 560.483311 201.069444 559.007853 200.458289 557.469599 200.458289 
C 555.931345 200.458289 554.455887 201.069444 553.368177 202.157154 
C 552.280467 203.244864 551.669312 204.720322 551.669312 206.258576 
C 551.669312 207.79683 552.280467 209.272288 553.368177 210.359998 
C 554.455887 211.447708 555.931345 212.058863 557.469599 212.058863 
z
" style="fill:#ff0000;stroke:#000000;stroke-width:0.5;"/>
    <path clip-path="url(#p1fa3ab95c4)" d="M 412.442326 117.465831 
C 413.411897 117.465831 414.341888 117.080616 415.027478 116.395026 
C 415.713068 115.709435 416.098283 114.779445 416.098283 113.809873 
C 416.098283 112.840302 415.713068 111.910311 415.027478 111.224721 
C 414.341888 110.539131 413.411897 110.153916 412.442326 110.153916 
C 411.472755 110.153916 410.542764 110.539131 409.857173 111.224721 
C 409.171583 111.910311 408.786368 112.840302 408.786368 113.809873 
C 408.786368 114.779445 409.171583 115.709435 409.857173 116.395026 
C 410.542764 117.080616 411.472755 117.465831 412.442326 117.465831 
z
" style="fill:#ff0000;stroke:#000000;stroke-width:0.5;"/>
    <path clip-path="url(#p1fa3ab95c4)" d="M 482.957742 141.888797 
C 483.522544 141.888797 484.064289 141.664398 484.463665 141.265023 
C 484.86304 140.865648 485.087438 140.323903 485.087438 139.759101 
C 485.087438 139.194299 484.86304 138.652554 484.463665 138.253178 
C 484.064289 137.853803 483.522544 137.629405 482.957742 137.629405 
C 482.39294 137.629405 481.851195 137.853803 481.45182 138.253178 
C 481.052445 138.652554 480.828046 139.194299 480.828046 139.759101 
C 480.828046 140.323903 481.052445 140.865648 481.45182 141.265023 
C 481.851195 141.664398 482.39294 141.888797 482.957742 141.888797 
z
" style="fill:#ff0000;stroke:#000000;stroke-width:0.5;"/>
    <path clip-path="url(#p1fa3ab95c4)" d="M 554.925975 112.313229 
C 555.828523 112.313229 556.694226 111.954643 557.332424 111.316445 
C 557.970622 110.678247 558.329208 109.812544 558.329208 108.909996 
C 558.329208 108.007449 557.970622 107.141745 557.332424 106.503548 
C 556.694226 105.86535 555.828523 105.506764 554.925975 105.506764 
C 554.023428 105.506764 553.157724 105.86535 552.519527 106.503548 
C 551.881329 107.141745 551.522743 108.007449 551.522743 108.909996 
C 551.522743 109.812544 551.881329 110.678247 552.519527 111.316445 
C 553.157724 111.954643 554.023428 112.313229 554.925975 112.313229 
z
" style="fill:#ff0000;stroke:#000000;stroke-width:0.5;"/>
    <path clip-path="url(#p1fa3ab95c4)" d="M 517.550397 123.816846 
C 519.395988 123.816846 521.166236 123.083585 522.471266 121.778555 
C 523.776296 120.473525 524.509557 118.703277 524.509557 116.857686 
C 524.509557 115.012096 523.776296 113.241847 522.471266 111.936817 
C 521.166236 110.631788 519.395988 109.898527 517.550397 109.898527 
C 515.704807 109.898527 513.934558 110.631788 512.629528 111.936817 
C 511.324499 113.241847 510.591238 115.012096 510.591238 116.857686 
C 510.591238 118.703277 511.324499 120.473525 512.629528 121.778555 
C 513.934558 123.083585 515.704807 123.816846 517.550397 123.816846 
z
" style="fill:#ff0000;stroke:#000000;stroke-width:0.5;"/>
    <path clip-path="url(#p1fa3ab95c4)" d="M 579.130234 132.794228 
C 580.063238 132.794228 580.958153 132.423542 581.617886 131.763809 
C 582.277619 131.104076 582.648305 130.20916 582.648305 129.276157 
C 582.648305 128.343154 582.277619 127.448239 581.617886 126.788506 
C 580.958153 126.128773 580.063238 125.758087 579.130234 125.758087 
C 578.197231 125.758087 577.302316 126.128773 576.642583 126.788506 
C 575.98285 127.448239 575.612164 128.343154 575.612164 129.276157 
C 575.612164 130.20916 575.98285 131.104076 576.642583 131.763809 
C 577.302316 132.423542 578.197231 132.794228 579.130234 132.794228 
z
" style="fill:#ff0000;stroke:#000000;stroke-width:0.5;"/>
    <path clip-path="url(#p1fa3ab95c4)" d="M 439.662259 150.932243 
C 440.59702 150.932243 441.493622 150.560859 442.154598 149.899883 
C 442.815574 149.238907 443.186959 148.342305 443.186959 147.407544 
C 443.186959 146.472782 442.815574 145.57618 442.154598 144.915204 
C 441.493622 144.254228 440.59702 143.882844 439.662259 143.882844 
C 438.727498 143.882844 437.830896 144.254228 437.16992 144.915204 
C 436.508944 145.57618 436.137559 146.472782 436.137559 147.407544 
C 436.137559 148.342305 436.508944 149.238907 437.16992 149.899883 
C 437.830896 150.560859 438.727498 150.932243 439.662259 150.932243 
z
" style="fill:#ff0000;stroke:#000000;stroke-width:0.5;"/>
    <path clip-path="url(#p1fa3ab95c4)" d="M 493.751413 198.844076 
C 495.113757 198.844076 496.420486 198.302811 497.383809 197.339488 
C 498.347132 196.376165 498.888397 195.069436 498.888397 193.707092 
C 498.888397 192.344747 498.347132 191.038018 497.383809 190.074695 
C 496.420486 189.111372 495.113757 188.570107 493.751413 188.570107 
C 492.389068 188.570107 491.082339 189.111372 490.119016 190.074695 
C 489.155693 191.038018 488.614428 192.344747 488.614428 193.707092 
C 488.614428 195.069436 489.155693 196.376165 490.119016 197.339488 
C 491.082339 198.302811 492.389068 198.844076 493.751413 198.844076 
z
" style="fill:#ff0000;stroke:#000000;stroke-width:0.5;"/>
    <path clip-path="url(#p1fa3ab95c4)" d="M 408.316493 200.504767 
C 409.70042 200.504767 411.027852 199.954926 412.006437 198.976342 
C 412.985022 197.997757 413.534862 196.670325 413.534862 195.286398 
C 413.534862 193.90247 412.985022 192.575038 412.006437 191.596453 
C 411.027852 190.617869 409.70042 190.068029 408.316493 190.068029 
C 406.932565 190.068029 405.605133 190.617869 404.626549 191.596453 
C 403.647964 192.575038 403.098124 193.90247 403.098124 195.286398 
C 403.098124 196.670325 403.647964 197.997757 404.626549 198.976342 
C 405.605133 199.954926 406.932565 200.504767 408.316493 200.504767 
z
" style="fill:#ff0000;stroke:#000000;stroke-width:0.5;"/>
    <path clip-path="url(#p1fa3ab95c4)" d="M 473.463597 123.994014 
C 475.233988 123.994014 476.932106 123.290631 478.183962 122.038775 
C 479.435817 120.78692 480.139201 119.088802 480.139201 117.318411 
C 480.139201 115.54802 479.435817 113.849902 478.183962 112.598047 
C 476.932106 111.346191 475.233988 110.642808 473.463597 110.642808 
C 471.693207 110.642808 469.995088 111.346191 468.743233 112.598047 
C 467.491378 113.849902 466.787994 115.54802 466.787994 117.318411 
C 466.787994 119.088802 467.491378 120.78692 468.743233 122.038775 
C 469.995088 123.290631 471.693207 123.994014 473.463597 123.994014 
z
" style="fill:#ff0000;stroke:#000000;stroke-width:0.5;"/>
    <path clip-path="url(#p1fa3ab95c4)" d="M 525.839596 197.596921 
C 526.886843 197.596921 527.891338 197.180845 528.631854 196.44033 
C 529.372369 195.699815 529.788445 194.695319 529.788445 193.648072 
C 529.788445 192.600826 529.372369 191.59633 528.631854 190.855815 
C 527.891338 190.115299 526.886843 189.699224 525.839596 189.699224 
C 524.792349 189.699224 523.787854 190.115299 523.047338 190.855815 
C 522.306823 191.59633 521.890747 192.600826 521.890747 193.648072 
C 521.890747 194.695319 522.306823 195.699815 523.047338 196.44033 
C 523.787854 197.180845 524.792349 197.596921 525.839596 197.596921 
z
" style="fill:#ff0000;stroke:#000000;stroke-width:0.5;"/>
    <path clip-path="url(#p1fa3ab95c4)" d="M 389.856715 202.816679 
C 390.880148 202.816679 391.861802 202.410065 392.585478 201.686389 
C 393.309155 200.962712 393.715769 199.981059 393.715769 198.957626 
C 393.715769 197.934193 393.309155 196.952539 392.585478 196.228863 
C 391.861802 195.505186 390.880148 195.098572 389.856715 195.098572 
C 388.833282 195.098572 387.851629 195.505186 387.127952 196.228863 
C 386.404276 196.952539 385.997661 197.934193 385.997661 198.957626 
C 385.997661 199.981059 386.404276 200.962712 387.127952 201.686389 
C 387.851629 202.410065 388.833282 202.816679 389.856715 202.816679 
z
" style="fill:#ff0000;stroke:#000000;stroke-width:0.5;"/>
   </g>
   <g id="PathCollection_2">
    <path clip-path="url(#p1fa3ab95c4)" d="M 232.489234 488.068175 
C 233.706032 488.068175 234.873157 487.584736 235.733564 486.72433 
C 236.59397 485.863924 237.077409 484.696798 237.077409 483.48 
C 237.077409 482.263202 236.59397 481.096076 235.733564 480.23567 
C 234.873157 479.375264 233.706032 478.891825 232.489234 478.891825 
C 231.272436 478.891825 230.10531 479.375264 229.244904 480.23567 
C 228.384498 481.096076 227.901059 482.263202 227.901059 483.48 
C 227.901059 484.696798 228.384498 485.863924 229.244904 486.72433 
C 230.10531 487.584736 231.272436 488.068175 232.489234 488.068175 
z
" style="fill:#0000ff;stroke:#000000;stroke-width:0.5;"/>
    <path clip-path="url(#p1fa3ab95c4)" d="M 684.008949 326.999623 
C 685.335815 326.999623 686.608515 326.472454 687.546752 325.534218 
C 688.484988 324.595981 689.012158 323.323281 689.012158 321.996415 
C 689.012158 320.669548 688.484988 319.396848 687.546752 318.458612 
C 686.608515 317.520376 685.335815 316.993206 684.008949 316.993206 
C 682.682082 316.993206 681.409382 317.520376 680.471146 318.458612 
C 679.53291 319.396848 679.00574 320.669548 679.00574 321.996415 
C 679.00574 323.323281 679.53291 324.595981 680.471146 325.534218 
C 681.409382 326.472454 682.682082 326.999623 684.008949 326.999623 
z
" style="fill:#0000ff;stroke:#000000;stroke-width:0.5;"/>
    <path clip-path="url(#p1fa3ab95c4)" d="M 321.783869 158.172719 
C 322.754081 158.172719 323.684686 157.78725 324.37073 157.101206 
C 325.056773 156.415163 325.442243 155.484558 325.442243 154.514345 
C 325.442243 153.544133 325.056773 152.613528 324.37073 151.927484 
C 323.684686 151.241441 322.754081 150.855971 321.783869 150.855971 
C 320.813657 150.855971 319.883051 151.241441 319.197008 151.927484 
C 318.510964 152.613528 318.125495 153.544133 318.125495 154.514345 
C 318.125495 155.484558 318.510964 156.415163 319.197008 157.101206 
C 319.883051 157.78725 320.813657 158.172719 321.783869 158.172719 
z
" style="fill:#0000ff;stroke:#000000;stroke-width:0.5;"/>
    <path clip-path="url(#p1fa3ab95c4)" d="M 386.277173 215.745344 
C 387.393708 215.745344 388.464664 215.30174 389.254174 214.51223 
C 390.043684 213.72272 390.487288 212.651765 390.487288 211.535229 
C 390.487288 210.418694 390.043684 209.347738 389.254174 208.558228 
C 388.464664 207.768718 387.393708 207.325114 386.277173 207.325114 
C 385.160637 207.325114 384.089682 207.768718 383.300172 208.558228 
C 382.510662 209.347738 382.067058 210.418694 382.067058 211.535229 
C 382.067058 212.651765 382.510662 213.72272 383.300172 214.51223 
C 384.089682 215.30174 385.160637 215.745344 386.277173 215.745344 
z
" style="fill:#0000ff;stroke:#000000;stroke-width:0.5;"/>
    <path clip-path="url(#p1fa3ab95c4)" d="M 317.115615 245.703468 
C 318.994877 245.703468 320.797423 244.956829 322.126262 243.62799 
C 323.455101 242.299151 324.20174 240.496605 324.20174 238.617343 
C 324.20174 236.738081 323.455101 234.935536 322.126262 233.606697 
C 320.797423 232.277858 318.994877 231.531219 317.115615 231.531219 
C 315.236353 231.531219 313.433808 232.277858 312.104969 233.606697 
C 310.77613 234.935536 310.029491 236.738081 310.029491 238.617343 
C 310.029491 240.496605 310.77613 242.299151 312.104969 243.62799 
C 313.433808 244.956829 315.236353 245.703468 317.115615 245.703468 
z
" style="fill:#0000ff;stroke:#000000;stroke-width:0.5;"/>
    <path clip-path="url(#p1fa3ab95c4)" d="M 410.360659 227.2675 
C 411.502201 227.2675 412.597142 226.81396 413.404334 226.006768 
C 414.211525 225.199576 414.665065 224.104635 414.665065 222.963094 
C 414.665065 221.821552 414.211525 220.726611 413.404334 219.919419 
C 412.597142 219.112227 411.502201 218.658688 410.360659 218.658688 
C 409.219117 218.658688 408.124176 219.112227 407.316984 219.919419 
C 406.509792 220.726611 406.056253 221.821552 406.056253 222.963094 
C 406.056253 224.104635 406.509792 225.199576 407.316984 226.006768 
C 408.124176 226.81396 409.219117 227.2675 410.360659 227.2675 
z
" style="fill:#0000ff;stroke:#000000;stroke-width:0.5;"/>
    <path clip-path="url(#p1fa3ab95c4)" d="M 605.761209 227.088735 
C 606.944746 227.088735 608.079968 226.618511 608.916855 225.781624 
C 609.753742 224.944736 610.223966 223.809515 610.223966 222.625978 
C 610.223966 221.44244 609.753742 220.307219 608.916855 219.470331 
C 608.079968 218.633444 606.944746 218.16322 605.761209 218.16322 
C 604.577672 218.16322 603.44245 218.633444 602.605563 219.470331 
C 601.768676 220.307219 601.298452 221.44244 601.298452 222.625978 
C 601.298452 223.809515 601.768676 224.944736 602.605563 225.781624 
C 603.44245 226.618511 604.577672 227.088735 605.761209 227.088735 
z
" style="fill:#0000ff;stroke:#000000;stroke-width:0.5;"/>
    <path clip-path="url(#p1fa3ab95c4)" d="M 342.028171 142.216481 
C 342.747853 142.216481 343.438157 141.930548 343.947049 141.421656 
C 344.455942 140.912763 344.741875 140.22246 344.741875 139.502777 
C 344.741875 138.783095 344.455942 138.092791 343.947049 137.583899 
C 343.438157 137.075006 342.747853 136.789073 342.028171 136.789073 
C 341.308488 136.789073 340.618185 137.075006 340.109292 137.583899 
C 339.6004 138.092791 339.314467 138.783095 339.314467 139.502777 
C 339.314467 140.22246 339.6004 140.912763 340.109292 141.421656 
C 340.618185 141.930548 341.308488 142.216481 342.028171 142.216481 
z
" style="fill:#0000ff;stroke:#000000;stroke-width:0.5;"/>
    <path clip-path="url(#p1fa3ab95c4)" d="M 525.208055 316.710975 
C 526.82949 316.710975 528.384735 316.066772 529.531263 314.920243 
C 530.677791 313.773715 531.321994 312.218471 531.321994 310.597035 
C 531.321994 308.975599 530.677791 307.420355 529.531263 306.273827 
C 528.384735 305.127299 526.82949 304.483095 525.208055 304.483095 
C 523.586619 304.483095 522.031374 305.127299 520.884846 306.273827 
C 519.738318 307.420355 519.094115 308.975599 519.094115 310.597035 
C 519.094115 312.218471 519.738318 313.773715 520.884846 314.920243 
C 522.031374 316.066772 523.586619 316.710975 525.208055 316.710975 
z
" style="fill:#0000ff;stroke:#000000;stroke-width:0.5;"/>
    <path clip-path="url(#p1fa3ab95c4)" d="M 626.513094 261.314912 
C 628.064394 261.314912 629.552366 260.698574 630.649302 259.601639 
C 631.746237 258.504703 632.362575 257.016731 632.362575 255.46543 
C 632.362575 253.91413 631.746237 252.426158 630.649302 251.329222 
C 629.552366 250.232287 628.064394 249.615949 626.513094 249.615949 
C 624.961793 249.615949 623.473821 250.232287 622.376885 251.329222 
C 621.27995 252.426158 620.663612 253.91413 620.663612 255.46543 
C 620.663612 257.016731 621.27995 258.504703 622.376885 259.601639 
C 623.473821 260.698574 624.961793 261.314912 626.513094 261.314912 
z
" style="fill:#0000ff;stroke:#000000;stroke-width:0.5;"/>
    <path clip-path="url(#p1fa3ab95c4)" d="M 376.694015 369.77219 
C 377.934976 369.77219 379.125278 369.27915 380.00277 368.401658 
C 380.880262 367.524166 381.373301 366.333865 381.373301 365.092903 
C 381.373301 363.851942 380.880262 362.661641 380.00277 361.784148 
C 379.125278 360.906656 377.934976 360.413617 376.694015 360.413617 
C 375.453054 360.413617 374.262752 360.906656 373.38526 361.784148 
C 372.507768 362.661641 372.014729 363.851942 372.014729 365.092903 
C 372.014729 366.333865 372.507768 367.524166 373.38526 368.401658 
C 374.262752 369.27915 375.453054 369.77219 376.694015 369.77219 
z
" style="fill:#0000ff;stroke:#000000;stroke-width:0.5;"/>
    <path clip-path="url(#p1fa3ab95c4)" d="M 499.938664 181.862223 
C 500.371753 181.862223 500.787161 181.690155 501.093401 181.383915 
C 501.399641 181.077676 501.571709 180.662267 501.571709 180.229179 
C 501.571709 179.79609 501.399641 179.380682 501.093401 179.074442 
C 500.787161 178.768202 500.371753 178.596134 499.938664 178.596134 
C 499.505576 178.596134 499.090167 178.768202 498.783928 179.074442 
C 498.477688 179.380682 498.30562 179.79609 498.30562 180.229179 
C 498.30562 180.662267 498.477688 181.077676 498.783928 181.383915 
C 499.090167 181.690155 499.505576 181.862223 499.938664 181.862223 
z
" style="fill:#0000ff;stroke:#000000;stroke-width:0.5;"/>
    <path clip-path="url(#p1fa3ab95c4)" d="M 461.533992 327.512749 
C 463.368567 327.512749 465.12825 326.783865 466.425491 325.486624 
C 467.722731 324.189384 468.451616 322.429701 468.451616 320.595125 
C 468.451616 318.76055 467.722731 317.000867 466.425491 315.703627 
C 465.12825 314.406386 463.368567 313.677502 461.533992 313.677502 
C 459.699417 313.677502 457.939734 314.406386 456.642493 315.703627 
C 455.345253 317.000867 454.616368 318.76055 454.616368 320.595125 
C 454.616368 322.429701 455.345253 324.189384 456.642493 325.486624 
C 457.939734 326.783865 459.699417 327.512749 461.533992 327.512749 
z
" style="fill:#0000ff;stroke:#000000;stroke-width:0.5;"/>
    <path clip-path="url(#p1fa3ab95c4)" d="M 358.698541 278.674866 
C 360.500393 278.674866 362.228688 277.958983 363.502789 276.684881 
C 364.776891 275.410779 365.492774 273.682484 365.492774 271.880633 
C 365.492774 270.078781 364.776891 268.350486 363.502789 267.076384 
C 362.228688 265.802282 360.500393 265.086399 358.698541 265.086399 
C 356.896689 265.086399 355.168394 265.802282 353.894292 267.076384 
C 352.620191 268.350486 351.904307 270.078781 351.904307 271.880633 
C 351.904307 273.682484 352.620191 275.410779 353.894292 276.684881 
C 355.168394 277.958983 356.896689 278.674866 358.698541 278.674866 
z
" style="fill:#0000ff;stroke:#000000;stroke-width:0.5;"/>
    <path clip-path="url(#p1fa3ab95c4)" d="M 297.906851 228.697244 
C 299.284274 228.697244 300.605468 228.149988 301.579453 227.176003 
C 302.553439 226.202017 303.100695 224.880824 303.100695 223.5034 
C 303.100695 222.125976 302.553439 220.804783 301.579453 219.830797 
C 300.605468 218.856812 299.284274 218.309555 297.906851 218.309555 
C 296.529427 218.309555 295.208233 218.856812 294.234248 219.830797 
C 293.260262 220.804783 292.713006 222.125976 292.713006 223.5034 
C 292.713006 224.880824 293.260262 226.202017 294.234248 227.176003 
C 295.208233 228.149988 296.529427 228.697244 297.906851 228.697244 
z
" style="fill:#0000ff;stroke:#000000;stroke-width:0.5;"/>
    <path clip-path="url(#p1fa3ab95c4)" d="M 340.018474 35.246761 
C 341.441755 35.246761 342.806935 34.681285 343.813347 33.674873 
C 344.819759 32.668461 345.385235 31.303282 345.385235 29.88 
C 345.385235 28.456718 344.819759 27.091539 343.813347 26.085127 
C 342.806935 25.078715 341.441755 24.513239 340.018474 24.513239 
C 338.595192 24.513239 337.230012 25.078715 336.2236 26.085127 
C 335.217188 27.091539 334.651712 28.456718 334.651712 29.88 
C 334.651712 31.303282 335.217188 32.668461 336.2236 33.674873 
C 337.230012 34.681285 338.595192 35.246761 340.018474 35.246761 
z
" style="fill:#0000ff;stroke:#000000;stroke-width:0.5;"/>
    <path clip-path="url(#p1fa3ab95c4)" d="M 591.471572 488.902726 
C 593.353641 488.902726 595.158879 488.154972 596.489703 486.824148 
C 597.820527 485.493324 598.568281 483.688086 598.568281 481.806017 
C 598.568281 479.923948 597.820527 478.11871 596.489703 476.787886 
C 595.158879 475.457062 593.353641 474.709308 591.471572 474.709308 
C 589.589503 474.709308 587.784265 475.457062 586.453441 476.787886 
C 585.122617 478.11871 584.374863 479.923948 584.374863 481.806017 
C 584.374863 483.688086 585.122617 485.493324 586.453441 486.824148 
C 587.784265 488.154972 589.589503 488.902726 591.471572 488.902726 
z
" style="fill:#0000ff;stroke:#000000;stroke-width:0.5;"/>
    <path clip-path="url(#p1fa3ab95c4)" d="M 536.371641 160.208665 
C 537.172426 160.208665 537.940522 159.890509 538.506763 159.324268 
C 539.073004 158.758027 539.391159 157.989932 539.391159 157.189146 
C 539.391159 156.38836 539.073004 155.620265 538.506763 155.054024 
C 537.940522 154.487783 537.172426 154.169628 536.371641 154.169628 
C 535.570855 154.169628 534.80276 154.487783 534.236519 155.054024 
C 533.670278 155.620265 533.352122 156.38836 533.352122 157.189146 
C 533.352122 157.989932 533.670278 158.758027 534.236519 159.324268 
C 534.80276 159.890509 535.570855 160.208665 536.371641 160.208665 
z
" style="fill:#0000ff;stroke:#000000;stroke-width:0.5;"/>
    <path clip-path="url(#p1fa3ab95c4)" d="M 481.358441 248.963598 
C 482.325479 248.963598 483.25304 248.579389 483.936839 247.89559 
C 484.620639 247.211791 485.004847 246.28423 485.004847 245.317191 
C 485.004847 244.350153 484.620639 243.422592 483.936839 242.738793 
C 483.25304 242.054993 482.325479 241.670785 481.358441 241.670785 
C 480.391402 241.670785 479.463841 242.054993 478.780042 242.738793 
C 478.096243 243.422592 477.712034 244.350153 477.712034 245.317191 
C 477.712034 246.28423 478.096243 247.211791 478.780042 247.89559 
C 479.463841 248.579389 480.391402 248.963598 481.358441 248.963598 
z
" style="fill:#0000ff;stroke:#000000;stroke-width:0.5;"/>
    <path clip-path="url(#p1fa3ab95c4)" d="M 75.281676 189.674474 
C 76.03444 189.674474 76.756473 189.375398 77.288758 188.843114 
C 77.821042 188.310829 78.120118 187.588796 78.120118 186.836032 
C 78.120118 186.083269 77.821042 185.361235 77.288758 184.828951 
C 76.756473 184.296667 76.03444 183.99759 75.281676 183.99759 
C 74.528913 183.99759 73.806879 184.296667 73.274595 184.828951 
C 72.742311 185.361235 72.443234 186.083269 72.443234 186.836032 
C 72.443234 187.588796 72.742311 188.310829 73.274595 188.843114 
C 73.806879 189.375398 74.528913 189.674474 75.281676 189.674474 
z
" style="fill:#0000ff;stroke:#000000;stroke-width:0.5;"/>
   </g>
   <g id="line2d_35">
    <path clip-path="url(#p1fa3ab95c4)" d="M 587.522402 120.613017 
L 536.371641 157.189146 
" style="fill:none;stroke:#000000;stroke-linecap:square;stroke-width:1.5;"/>
   </g>
   <g id="line2d_36">
    <path clip-path="url(#p1fa3ab95c4)" d="M 400.018088 178.214755 
L 317.115615 238.617343 
" style="fill:none;stroke:#000000;stroke-linecap:square;stroke-width:1.5;"/>
   </g>
   <g id="line2d_37">
    <path clip-path="url(#p1fa3ab95c4)" d="M 400.018088 178.214755 
L 297.906851 223.5034 
" style="fill:none;stroke:#000000;stroke-linecap:square;stroke-width:1.5;"/>
   </g>
   <g id="line2d_38">
    <path clip-path="url(#p1fa3ab95c4)" d="M 400.018088 178.214755 
L 75.281676 186.836032 
" style="fill:none;stroke:#000000;stroke-linecap:square;stroke-width:1.5;"/>
   </g>
   <g id="line2d_39">
    <path clip-path="url(#p1fa3ab95c4)" d="M 548.721991 125.986124 
L 536.371641 157.189146 
" style="fill:none;stroke:#000000;stroke-linecap:square;stroke-width:1.5;"/>
   </g>
   <g id="line2d_40">
    <path clip-path="url(#p1fa3ab95c4)" d="M 498.340713 148.221016 
L 410.360659 222.963094 
" style="fill:none;stroke:#000000;stroke-linecap:square;stroke-width:1.5;"/>
   </g>
   <g id="line2d_41">
    <path clip-path="url(#p1fa3ab95c4)" d="M 498.340713 148.221016 
L 481.358441 245.317191 
" style="fill:none;stroke:#000000;stroke-linecap:square;stroke-width:1.5;"/>
   </g>
   <g id="line2d_42">
    <path clip-path="url(#p1fa3ab95c4)" d="M 572.712199 146.478043 
L 684.008949 321.996415 
" style="fill:none;stroke:#000000;stroke-linecap:square;stroke-width:1.5;"/>
   </g>
   <g id="line2d_43">
    <path clip-path="url(#p1fa3ab95c4)" d="M 572.712199 146.478043 
L 525.208055 310.597035 
" style="fill:none;stroke:#000000;stroke-linecap:square;stroke-width:1.5;"/>
   </g>
   <g id="line2d_44">
    <path clip-path="url(#p1fa3ab95c4)" d="M 572.712199 146.478043 
L 626.513094 255.46543 
" style="fill:none;stroke:#000000;stroke-linecap:square;stroke-width:1.5;"/>
   </g>
   <g id="line2d_45">
    <path clip-path="url(#p1fa3ab95c4)" d="M 406.712976 197.347574 
L 232.489234 483.48 
" style="fill:none;stroke:#000000;stroke-linecap:square;stroke-width:1.5;"/>
   </g>
   <g id="line2d_46">
    <path clip-path="url(#p1fa3ab95c4)" d="M 556.341219 150.355348 
L 525.208055 310.597035 
" style="fill:none;stroke:#000000;stroke-linecap:square;stroke-width:1.5;"/>
   </g>
   <g id="line2d_47">
    <path clip-path="url(#p1fa3ab95c4)" d="M 400.292223 102.622688 
L 340.018474 29.88 
" style="fill:none;stroke:#000000;stroke-linecap:square;stroke-width:1.5;"/>
   </g>
   <g id="line2d_48">
    <path clip-path="url(#p1fa3ab95c4)" d="M 557.469599 206.258576 
L 525.208055 310.597035 
" style="fill:none;stroke:#000000;stroke-linecap:square;stroke-width:1.5;"/>
   </g>
   <g id="line2d_49">
    <path clip-path="url(#p1fa3ab95c4)" d="M 557.469599 206.258576 
L 591.471572 481.806017 
" style="fill:none;stroke:#000000;stroke-linecap:square;stroke-width:1.5;"/>
   </g>
   <g id="line2d_50">
    <path clip-path="url(#p1fa3ab95c4)" d="M 412.442326 113.809873 
L 321.783869 154.514345 
" style="fill:none;stroke:#000000;stroke-linecap:square;stroke-width:1.5;"/>
   </g>
   <g id="line2d_51">
    <path clip-path="url(#p1fa3ab95c4)" d="M 412.442326 113.809873 
L 340.018474 29.88 
" style="fill:none;stroke:#000000;stroke-linecap:square;stroke-width:1.5;"/>
   </g>
   <g id="line2d_52">
    <path clip-path="url(#p1fa3ab95c4)" d="M 482.957742 139.759101 
L 386.277173 211.535229 
" style="fill:none;stroke:#000000;stroke-linecap:square;stroke-width:1.5;"/>
   </g>
   <g id="line2d_53">
    <path clip-path="url(#p1fa3ab95c4)" d="M 554.925975 108.909996 
L 536.371641 157.189146 
" style="fill:none;stroke:#000000;stroke-linecap:square;stroke-width:1.5;"/>
   </g>
   <g id="line2d_54">
    <path clip-path="url(#p1fa3ab95c4)" d="M 517.550397 116.857686 
L 386.277173 211.535229 
" style="fill:none;stroke:#000000;stroke-linecap:square;stroke-width:1.5;"/>
   </g>
   <g id="line2d_55">
    <path clip-path="url(#p1fa3ab95c4)" d="M 517.550397 116.857686 
L 410.360659 222.963094 
" style="fill:none;stroke:#000000;stroke-linecap:square;stroke-width:1.5;"/>
   </g>
   <g id="line2d_56">
    <path clip-path="url(#p1fa3ab95c4)" d="M 517.550397 116.857686 
L 342.028171 139.502777 
" style="fill:none;stroke:#000000;stroke-linecap:square;stroke-width:1.5;"/>
   </g>
   <g id="line2d_57">
    <path clip-path="url(#p1fa3ab95c4)" d="M 517.550397 116.857686 
L 499.938664 180.229179 
" style="fill:none;stroke:#000000;stroke-linecap:square;stroke-width:1.5;"/>
   </g>
   <g id="line2d_58">
    <path clip-path="url(#p1fa3ab95c4)" d="M 517.550397 116.857686 
L 536.371641 157.189146 
" style="fill:none;stroke:#000000;stroke-linecap:square;stroke-width:1.5;"/>
   </g>
   <g id="line2d_59">
    <path clip-path="url(#p1fa3ab95c4)" d="M 579.130234 129.276157 
L 605.761209 222.625978 
" style="fill:none;stroke:#000000;stroke-linecap:square;stroke-width:1.5;"/>
   </g>
   <g id="line2d_60">
    <path clip-path="url(#p1fa3ab95c4)" d="M 579.130234 129.276157 
L 626.513094 255.46543 
" style="fill:none;stroke:#000000;stroke-linecap:square;stroke-width:1.5;"/>
   </g>
   <g id="line2d_61">
    <path clip-path="url(#p1fa3ab95c4)" d="M 579.130234 129.276157 
L 536.371641 157.189146 
" style="fill:none;stroke:#000000;stroke-linecap:square;stroke-width:1.5;"/>
   </g>
   <g id="line2d_62">
    <path clip-path="url(#p1fa3ab95c4)" d="M 439.662259 147.407544 
L 321.783869 154.514345 
" style="fill:none;stroke:#000000;stroke-linecap:square;stroke-width:1.5;"/>
   </g>
   <g id="line2d_63">
    <path clip-path="url(#p1fa3ab95c4)" d="M 439.662259 147.407544 
L 386.277173 211.535229 
" style="fill:none;stroke:#000000;stroke-linecap:square;stroke-width:1.5;"/>
   </g>
   <g id="line2d_64">
    <path clip-path="url(#p1fa3ab95c4)" d="M 439.662259 147.407544 
L 297.906851 223.5034 
" style="fill:none;stroke:#000000;stroke-linecap:square;stroke-width:1.5;"/>
   </g>
   <g id="line2d_65">
    <path clip-path="url(#p1fa3ab95c4)" d="M 493.751413 193.707092 
L 461.533992 320.595125 
" style="fill:none;stroke:#000000;stroke-linecap:square;stroke-width:1.5;"/>
   </g>
   <g id="line2d_66">
    <path clip-path="url(#p1fa3ab95c4)" d="M 408.316493 195.286398 
L 232.489234 483.48 
" style="fill:none;stroke:#000000;stroke-linecap:square;stroke-width:1.5;"/>
   </g>
   <g id="line2d_67">
    <path clip-path="url(#p1fa3ab95c4)" d="M 408.316493 195.286398 
L 317.115615 238.617343 
" style="fill:none;stroke:#000000;stroke-linecap:square;stroke-width:1.5;"/>
   </g>
   <g id="line2d_68">
    <path clip-path="url(#p1fa3ab95c4)" d="M 408.316493 195.286398 
L 376.694015 365.092903 
" style="fill:none;stroke:#000000;stroke-linecap:square;stroke-width:1.5;"/>
   </g>
   <g id="line2d_69">
    <path clip-path="url(#p1fa3ab95c4)" d="M 408.316493 195.286398 
L 461.533992 320.595125 
" style="fill:none;stroke:#000000;stroke-linecap:square;stroke-width:1.5;"/>
   </g>
   <g id="line2d_70">
    <path clip-path="url(#p1fa3ab95c4)" d="M 408.316493 195.286398 
L 358.698541 271.880633 
" style="fill:none;stroke:#000000;stroke-linecap:square;stroke-width:1.5;"/>
   </g>
   <g id="line2d_71">
    <path clip-path="url(#p1fa3ab95c4)" d="M 473.463597 117.318411 
L 342.028171 139.502777 
" style="fill:none;stroke:#000000;stroke-linecap:square;stroke-width:1.5;"/>
   </g>
   <g id="line2d_72">
    <path clip-path="url(#p1fa3ab95c4)" d="M 525.839596 193.648072 
L 461.533992 320.595125 
" style="fill:none;stroke:#000000;stroke-linecap:square;stroke-width:1.5;"/>
   </g>
   <g id="line2d_73">
    <path clip-path="url(#p1fa3ab95c4)" d="M 389.856715 198.957626 
L 232.489234 483.48 
" style="fill:none;stroke:#000000;stroke-linecap:square;stroke-width:1.5;"/>
   </g>
   <g id="patch_3">
    <path d="M 44.845313 506.16 
L 44.845313 7.2 
" style="fill:none;stroke:#ffffff;stroke-linecap:square;stroke-linejoin:miter;"/>
   </g>
   <g id="patch_4">
    <path d="M 714.445312 506.16 
L 714.445312 7.2 
" style="fill:none;stroke:#ffffff;stroke-linecap:square;stroke-linejoin:miter;"/>
   </g>
   <g id="patch_5">
    <path d="M 44.845312 506.16 
L 714.445312 506.16 
" style="fill:none;stroke:#ffffff;stroke-linecap:square;stroke-linejoin:miter;"/>
   </g>
   <g id="patch_6">
    <path d="M 44.845312 7.2 
L 714.445312 7.2 
" style="fill:none;stroke:#ffffff;stroke-linecap:square;stroke-linejoin:miter;"/>
   </g>
  </g>
 </g>
 <defs>
  <clipPath id="p1fa3ab95c4">
   <rect height="498.96" width="669.6" x="44.845313" y="7.2"/>
  </clipPath>
 </defs>
</svg>
