<?xml version="1.0" encoding="utf-8" standalone="no"?>
<!DOCTYPE svg PUBLIC "-//W3C//DTD SVG 1.1//EN"
  "http://www.w3.org/Graphics/SVG/1.1/DTD/svg11.dtd">
<!-- Created with matplotlib (https://matplotlib.org/) -->
<svg height="530.038125pt" version="1.1" viewBox="0 0 715.282812 530.038125" width="715.282812pt" xmlns="http://www.w3.org/2000/svg" xmlns:xlink="http://www.w3.org/1999/xlink">
 <defs>
  <style type="text/css">
*{stroke-linecap:butt;stroke-linejoin:round;}
  </style>
 </defs>
 <g id="figure_1">
  <g id="patch_1">
   <path d="M 0 530.038125 
L 715.282812 530.038125 
L 715.282812 0 
L 0 0 
z
" style="fill:#ffffff;"/>
  </g>
  <g id="axes_1">
   <g id="patch_2">
    <path d="M 38.482813 506.16 
L 708.082813 506.16 
L 708.082813 7.2 
L 38.482813 7.2 
z
" style="fill:#e5e5e5;"/>
   </g>
   <g id="matplotlib.axis_1">
    <g id="xtick_1">
     <g id="line2d_1">
      <path clip-path="url(#pd1943c6173)" d="M 127.290093 506.16 
L 127.290093 7.2 
" style="fill:none;stroke:#ffffff;stroke-linecap:square;stroke-width:0.8;"/>
     </g>
     <g id="line2d_2">
      <defs>
       <path d="M 0 0 
L 0 3.5 
" id="m11e49a7ed5" style="stroke:#555555;stroke-width:0.8;"/>
      </defs>
      <g>
       <use style="fill:#555555;stroke:#555555;stroke-width:0.8;" x="127.290093" xlink:href="#m11e49a7ed5" y="506.16"/>
      </g>
     </g>
     <g id="text_1">
      <!-- −0.6 -->
      <defs>
       <path d="M 10.59375 35.5 
L 73.1875 35.5 
L 73.1875 27.203125 
L 10.59375 27.203125 
z
" id="DejaVuSans-8722"/>
       <path d="M 31.78125 66.40625 
Q 24.171875 66.40625 20.328125 58.90625 
Q 16.5 51.421875 16.5 36.375 
Q 16.5 21.390625 20.328125 13.890625 
Q 24.171875 6.390625 31.78125 6.390625 
Q 39.453125 6.390625 43.28125 13.890625 
Q 47.125 21.390625 47.125 36.375 
Q 47.125 51.421875 43.28125 58.90625 
Q 39.453125 66.40625 31.78125 66.40625 
z
M 31.78125 74.21875 
Q 44.046875 74.21875 50.515625 64.515625 
Q 56.984375 54.828125 56.984375 36.375 
Q 56.984375 17.96875 50.515625 8.265625 
Q 44.046875 -1.421875 31.78125 -1.421875 
Q 19.53125 -1.421875 13.0625 8.265625 
Q 6.59375 17.96875 6.59375 36.375 
Q 6.59375 54.828125 13.0625 64.515625 
Q 19.53125 74.21875 31.78125 74.21875 
z
" id="DejaVuSans-48"/>
       <path d="M 10.6875 12.40625 
L 21 12.40625 
L 21 0 
L 10.6875 0 
z
" id="DejaVuSans-46"/>
       <path d="M 33.015625 40.375 
Q 26.375 40.375 22.484375 35.828125 
Q 18.609375 31.296875 18.609375 23.390625 
Q 18.609375 15.53125 22.484375 10.953125 
Q 26.375 6.390625 33.015625 6.390625 
Q 39.65625 6.390625 43.53125 10.953125 
Q 47.40625 15.53125 47.40625 23.390625 
Q 47.40625 31.296875 43.53125 35.828125 
Q 39.65625 40.375 33.015625 40.375 
z
M 52.59375 71.296875 
L 52.59375 62.3125 
Q 48.875 64.0625 45.09375 64.984375 
Q 41.3125 65.921875 37.59375 65.921875 
Q 27.828125 65.921875 22.671875 59.328125 
Q 17.53125 52.734375 16.796875 39.40625 
Q 19.671875 43.65625 24.015625 45.921875 
Q 28.375 48.1875 33.59375 48.1875 
Q 44.578125 48.1875 50.953125 41.515625 
Q 57.328125 34.859375 57.328125 23.390625 
Q 57.328125 12.15625 50.6875 5.359375 
Q 44.046875 -1.421875 33.015625 -1.421875 
Q 20.359375 -1.421875 13.671875 8.265625 
Q 6.984375 17.96875 6.984375 36.375 
Q 6.984375 53.65625 15.1875 63.9375 
Q 23.390625 74.21875 37.203125 74.21875 
Q 40.921875 74.21875 44.703125 73.484375 
Q 48.484375 72.75 52.59375 71.296875 
z
" id="DejaVuSans-54"/>
      </defs>
      <g style="fill:#555555;" transform="translate(115.148687 520.758438)scale(0.1 -0.1)">
       <use xlink:href="#DejaVuSans-8722"/>
       <use x="83.789062" xlink:href="#DejaVuSans-48"/>
       <use x="147.412109" xlink:href="#DejaVuSans-46"/>
       <use x="179.199219" xlink:href="#DejaVuSans-54"/>
      </g>
     </g>
    </g>
    <g id="xtick_2">
     <g id="line2d_3">
      <path clip-path="url(#pd1943c6173)" d="M 225.939458 506.16 
L 225.939458 7.2 
" style="fill:none;stroke:#ffffff;stroke-linecap:square;stroke-width:0.8;"/>
     </g>
     <g id="line2d_4">
      <g>
       <use style="fill:#555555;stroke:#555555;stroke-width:0.8;" x="225.939458" xlink:href="#m11e49a7ed5" y="506.16"/>
      </g>
     </g>
     <g id="text_2">
      <!-- −0.4 -->
      <defs>
       <path d="M 37.796875 64.3125 
L 12.890625 25.390625 
L 37.796875 25.390625 
z
M 35.203125 72.90625 
L 47.609375 72.90625 
L 47.609375 25.390625 
L 58.015625 25.390625 
L 58.015625 17.1875 
L 47.609375 17.1875 
L 47.609375 0 
L 37.796875 0 
L 37.796875 17.1875 
L 4.890625 17.1875 
L 4.890625 26.703125 
z
" id="DejaVuSans-52"/>
      </defs>
      <g style="fill:#555555;" transform="translate(213.798052 520.758438)scale(0.1 -0.1)">
       <use xlink:href="#DejaVuSans-8722"/>
       <use x="83.789062" xlink:href="#DejaVuSans-48"/>
       <use x="147.412109" xlink:href="#DejaVuSans-46"/>
       <use x="179.199219" xlink:href="#DejaVuSans-52"/>
      </g>
     </g>
    </g>
    <g id="xtick_3">
     <g id="line2d_5">
      <path clip-path="url(#pd1943c6173)" d="M 324.588823 506.16 
L 324.588823 7.2 
" style="fill:none;stroke:#ffffff;stroke-linecap:square;stroke-width:0.8;"/>
     </g>
     <g id="line2d_6">
      <g>
       <use style="fill:#555555;stroke:#555555;stroke-width:0.8;" x="324.588823" xlink:href="#m11e49a7ed5" y="506.16"/>
      </g>
     </g>
     <g id="text_3">
      <!-- −0.2 -->
      <defs>
       <path d="M 19.1875 8.296875 
L 53.609375 8.296875 
L 53.609375 0 
L 7.328125 0 
L 7.328125 8.296875 
Q 12.9375 14.109375 22.625 23.890625 
Q 32.328125 33.6875 34.8125 36.53125 
Q 39.546875 41.84375 41.421875 45.53125 
Q 43.3125 49.21875 43.3125 52.78125 
Q 43.3125 58.59375 39.234375 62.25 
Q 35.15625 65.921875 28.609375 65.921875 
Q 23.96875 65.921875 18.8125 64.3125 
Q 13.671875 62.703125 7.8125 59.421875 
L 7.8125 69.390625 
Q 13.765625 71.78125 18.9375 73 
Q 24.125 74.21875 28.421875 74.21875 
Q 39.75 74.21875 46.484375 68.546875 
Q 53.21875 62.890625 53.21875 53.421875 
Q 53.21875 48.921875 51.53125 44.890625 
Q 49.859375 40.875 45.40625 35.40625 
Q 44.1875 33.984375 37.640625 27.21875 
Q 31.109375 20.453125 19.1875 8.296875 
z
" id="DejaVuSans-50"/>
      </defs>
      <g style="fill:#555555;" transform="translate(312.447417 520.758438)scale(0.1 -0.1)">
       <use xlink:href="#DejaVuSans-8722"/>
       <use x="83.789062" xlink:href="#DejaVuSans-48"/>
       <use x="147.412109" xlink:href="#DejaVuSans-46"/>
       <use x="179.199219" xlink:href="#DejaVuSans-50"/>
      </g>
     </g>
    </g>
    <g id="xtick_4">
     <g id="line2d_7">
      <path clip-path="url(#pd1943c6173)" d="M 423.238189 506.16 
L 423.238189 7.2 
" style="fill:none;stroke:#ffffff;stroke-linecap:square;stroke-width:0.8;"/>
     </g>
     <g id="line2d_8">
      <g>
       <use style="fill:#555555;stroke:#555555;stroke-width:0.8;" x="423.238189" xlink:href="#m11e49a7ed5" y="506.16"/>
      </g>
     </g>
     <g id="text_4">
      <!-- 0.0 -->
      <g style="fill:#555555;" transform="translate(415.286626 520.758438)scale(0.1 -0.1)">
       <use xlink:href="#DejaVuSans-48"/>
       <use x="63.623047" xlink:href="#DejaVuSans-46"/>
       <use x="95.410156" xlink:href="#DejaVuSans-48"/>
      </g>
     </g>
    </g>
    <g id="xtick_5">
     <g id="line2d_9">
      <path clip-path="url(#pd1943c6173)" d="M 521.887554 506.16 
L 521.887554 7.2 
" style="fill:none;stroke:#ffffff;stroke-linecap:square;stroke-width:0.8;"/>
     </g>
     <g id="line2d_10">
      <g>
       <use style="fill:#555555;stroke:#555555;stroke-width:0.8;" x="521.887554" xlink:href="#m11e49a7ed5" y="506.16"/>
      </g>
     </g>
     <g id="text_5">
      <!-- 0.2 -->
      <g style="fill:#555555;" transform="translate(513.935991 520.758438)scale(0.1 -0.1)">
       <use xlink:href="#DejaVuSans-48"/>
       <use x="63.623047" xlink:href="#DejaVuSans-46"/>
       <use x="95.410156" xlink:href="#DejaVuSans-50"/>
      </g>
     </g>
    </g>
    <g id="xtick_6">
     <g id="line2d_11">
      <path clip-path="url(#pd1943c6173)" d="M 620.536919 506.16 
L 620.536919 7.2 
" style="fill:none;stroke:#ffffff;stroke-linecap:square;stroke-width:0.8;"/>
     </g>
     <g id="line2d_12">
      <g>
       <use style="fill:#555555;stroke:#555555;stroke-width:0.8;" x="620.536919" xlink:href="#m11e49a7ed5" y="506.16"/>
      </g>
     </g>
     <g id="text_6">
      <!-- 0.4 -->
      <g style="fill:#555555;" transform="translate(612.585357 520.758438)scale(0.1 -0.1)">
       <use xlink:href="#DejaVuSans-48"/>
       <use x="63.623047" xlink:href="#DejaVuSans-46"/>
       <use x="95.410156" xlink:href="#DejaVuSans-52"/>
      </g>
     </g>
    </g>
   </g>
   <g id="matplotlib.axis_2">
    <g id="ytick_1">
     <g id="line2d_13">
      <path clip-path="url(#pd1943c6173)" d="M 38.482813 485.328534 
L 708.082813 485.328534 
" style="fill:none;stroke:#ffffff;stroke-linecap:square;stroke-width:0.8;"/>
     </g>
     <g id="line2d_14">
      <defs>
       <path d="M 0 0 
L -3.5 0 
" id="ma77830e699" style="stroke:#555555;stroke-width:0.8;"/>
      </defs>
      <g>
       <use style="fill:#555555;stroke:#555555;stroke-width:0.8;" x="38.482813" xlink:href="#ma77830e699" y="485.328534"/>
      </g>
     </g>
     <g id="text_7">
      <!-- −0.8 -->
      <defs>
       <path d="M 31.78125 34.625 
Q 24.75 34.625 20.71875 30.859375 
Q 16.703125 27.09375 16.703125 20.515625 
Q 16.703125 13.921875 20.71875 10.15625 
Q 24.75 6.390625 31.78125 6.390625 
Q 38.8125 6.390625 42.859375 10.171875 
Q 46.921875 13.96875 46.921875 20.515625 
Q 46.921875 27.09375 42.890625 30.859375 
Q 38.875 34.625 31.78125 34.625 
z
M 21.921875 38.8125 
Q 15.578125 40.375 12.03125 44.71875 
Q 8.5 49.078125 8.5 55.328125 
Q 8.5 64.0625 14.71875 69.140625 
Q 20.953125 74.21875 31.78125 74.21875 
Q 42.671875 74.21875 48.875 69.140625 
Q 55.078125 64.0625 55.078125 55.328125 
Q 55.078125 49.078125 51.53125 44.71875 
Q 48 40.375 41.703125 38.8125 
Q 48.828125 37.15625 52.796875 32.3125 
Q 56.78125 27.484375 56.78125 20.515625 
Q 56.78125 9.90625 50.3125 4.234375 
Q 43.84375 -1.421875 31.78125 -1.421875 
Q 19.734375 -1.421875 13.25 4.234375 
Q 6.78125 9.90625 6.78125 20.515625 
Q 6.78125 27.484375 10.78125 32.3125 
Q 14.796875 37.15625 21.921875 38.8125 
z
M 18.3125 54.390625 
Q 18.3125 48.734375 21.84375 45.5625 
Q 25.390625 42.390625 31.78125 42.390625 
Q 38.140625 42.390625 41.71875 45.5625 
Q 45.3125 48.734375 45.3125 54.390625 
Q 45.3125 60.0625 41.71875 63.234375 
Q 38.140625 66.40625 31.78125 66.40625 
Q 25.390625 66.40625 21.84375 63.234375 
Q 18.3125 60.0625 18.3125 54.390625 
z
" id="DejaVuSans-56"/>
      </defs>
      <g style="fill:#555555;" transform="translate(7.2 489.127753)scale(0.1 -0.1)">
       <use xlink:href="#DejaVuSans-8722"/>
       <use x="83.789062" xlink:href="#DejaVuSans-48"/>
       <use x="147.412109" xlink:href="#DejaVuSans-46"/>
       <use x="179.199219" xlink:href="#DejaVuSans-56"/>
      </g>
     </g>
    </g>
    <g id="ytick_2">
     <g id="line2d_15">
      <path clip-path="url(#pd1943c6173)" d="M 38.482813 411.676024 
L 708.082813 411.676024 
" style="fill:none;stroke:#ffffff;stroke-linecap:square;stroke-width:0.8;"/>
     </g>
     <g id="line2d_16">
      <g>
       <use style="fill:#555555;stroke:#555555;stroke-width:0.8;" x="38.482813" xlink:href="#ma77830e699" y="411.676024"/>
      </g>
     </g>
     <g id="text_8">
      <!-- −0.6 -->
      <g style="fill:#555555;" transform="translate(7.2 415.475243)scale(0.1 -0.1)">
       <use xlink:href="#DejaVuSans-8722"/>
       <use x="83.789062" xlink:href="#DejaVuSans-48"/>
       <use x="147.412109" xlink:href="#DejaVuSans-46"/>
       <use x="179.199219" xlink:href="#DejaVuSans-54"/>
      </g>
     </g>
    </g>
    <g id="ytick_3">
     <g id="line2d_17">
      <path clip-path="url(#pd1943c6173)" d="M 38.482813 338.023514 
L 708.082813 338.023514 
" style="fill:none;stroke:#ffffff;stroke-linecap:square;stroke-width:0.8;"/>
     </g>
     <g id="line2d_18">
      <g>
       <use style="fill:#555555;stroke:#555555;stroke-width:0.8;" x="38.482813" xlink:href="#ma77830e699" y="338.023514"/>
      </g>
     </g>
     <g id="text_9">
      <!-- −0.4 -->
      <g style="fill:#555555;" transform="translate(7.2 341.822733)scale(0.1 -0.1)">
       <use xlink:href="#DejaVuSans-8722"/>
       <use x="83.789062" xlink:href="#DejaVuSans-48"/>
       <use x="147.412109" xlink:href="#DejaVuSans-46"/>
       <use x="179.199219" xlink:href="#DejaVuSans-52"/>
      </g>
     </g>
    </g>
    <g id="ytick_4">
     <g id="line2d_19">
      <path clip-path="url(#pd1943c6173)" d="M 38.482813 264.371004 
L 708.082813 264.371004 
" style="fill:none;stroke:#ffffff;stroke-linecap:square;stroke-width:0.8;"/>
     </g>
     <g id="line2d_20">
      <g>
       <use style="fill:#555555;stroke:#555555;stroke-width:0.8;" x="38.482813" xlink:href="#ma77830e699" y="264.371004"/>
      </g>
     </g>
     <g id="text_10">
      <!-- −0.2 -->
      <g style="fill:#555555;" transform="translate(7.2 268.170223)scale(0.1 -0.1)">
       <use xlink:href="#DejaVuSans-8722"/>
       <use x="83.789062" xlink:href="#DejaVuSans-48"/>
       <use x="147.412109" xlink:href="#DejaVuSans-46"/>
       <use x="179.199219" xlink:href="#DejaVuSans-50"/>
      </g>
     </g>
    </g>
    <g id="ytick_5">
     <g id="line2d_21">
      <path clip-path="url(#pd1943c6173)" d="M 38.482813 190.718495 
L 708.082813 190.718495 
" style="fill:none;stroke:#ffffff;stroke-linecap:square;stroke-width:0.8;"/>
     </g>
     <g id="line2d_22">
      <g>
       <use style="fill:#555555;stroke:#555555;stroke-width:0.8;" x="38.482813" xlink:href="#ma77830e699" y="190.718495"/>
      </g>
     </g>
     <g id="text_11">
      <!-- 0.0 -->
      <g style="fill:#555555;" transform="translate(15.579688 194.517713)scale(0.1 -0.1)">
       <use xlink:href="#DejaVuSans-48"/>
       <use x="63.623047" xlink:href="#DejaVuSans-46"/>
       <use x="95.410156" xlink:href="#DejaVuSans-48"/>
      </g>
     </g>
    </g>
    <g id="ytick_6">
     <g id="line2d_23">
      <path clip-path="url(#pd1943c6173)" d="M 38.482813 117.065985 
L 708.082813 117.065985 
" style="fill:none;stroke:#ffffff;stroke-linecap:square;stroke-width:0.8;"/>
     </g>
     <g id="line2d_24">
      <g>
       <use style="fill:#555555;stroke:#555555;stroke-width:0.8;" x="38.482813" xlink:href="#ma77830e699" y="117.065985"/>
      </g>
     </g>
     <g id="text_12">
      <!-- 0.2 -->
      <g style="fill:#555555;" transform="translate(15.579688 120.865204)scale(0.1 -0.1)">
       <use xlink:href="#DejaVuSans-48"/>
       <use x="63.623047" xlink:href="#DejaVuSans-46"/>
       <use x="95.410156" xlink:href="#DejaVuSans-50"/>
      </g>
     </g>
    </g>
    <g id="ytick_7">
     <g id="line2d_25">
      <path clip-path="url(#pd1943c6173)" d="M 38.482813 43.413475 
L 708.082813 43.413475 
" style="fill:none;stroke:#ffffff;stroke-linecap:square;stroke-width:0.8;"/>
     </g>
     <g id="line2d_26">
      <g>
       <use style="fill:#555555;stroke:#555555;stroke-width:0.8;" x="38.482813" xlink:href="#ma77830e699" y="43.413475"/>
      </g>
     </g>
     <g id="text_13">
      <!-- 0.4 -->
      <g style="fill:#555555;" transform="translate(15.579688 47.212694)scale(0.1 -0.1)">
       <use xlink:href="#DejaVuSans-48"/>
       <use x="63.623047" xlink:href="#DejaVuSans-46"/>
       <use x="95.410156" xlink:href="#DejaVuSans-52"/>
      </g>
     </g>
    </g>
   </g>
   <g id="PathCollection_1">
    <path clip-path="url(#pd1943c6173)" d="M 563.209023 35.428827 
C 564.680589 35.428827 566.092081 34.844167 567.132636 33.803613 
C 568.17319 32.763059 568.757849 31.351566 568.757849 29.88 
C 568.757849 28.408434 568.17319 26.996941 567.132636 25.956387 
C 566.092081 24.915833 564.680589 24.331173 563.209023 24.331173 
C 561.737457 24.331173 560.325964 24.915833 559.28541 25.956387 
C 558.244856 26.996941 557.660196 28.408434 557.660196 29.88 
C 557.660196 31.351566 558.244856 32.763059 559.28541 33.803613 
C 560.325964 34.844167 561.737457 35.428827 563.209023 35.428827 
z
" style="fill:#ff0000;stroke:#000000;stroke-width:0.5;"/>
    <path clip-path="url(#pd1943c6173)" d="M 603.265235 168.270505 
C 604.173429 168.270505 605.044548 167.909676 605.686739 167.267485 
C 606.328929 166.625295 606.689759 165.754176 606.689759 164.845981 
C 606.689759 163.937787 606.328929 163.066668 605.686739 162.424477 
C 605.044548 161.782287 604.173429 161.421457 603.265235 161.421457 
C 602.35704 161.421457 601.485921 161.782287 600.843731 162.424477 
C 600.20154 163.066668 599.840711 163.937787 599.840711 164.845981 
C 599.840711 165.754176 600.20154 166.625295 600.843731 167.267485 
C 601.485921 167.909676 602.35704 168.270505 603.265235 168.270505 
z
" style="fill:#ff0000;stroke:#000000;stroke-width:0.5;"/>
    <path clip-path="url(#pd1943c6173)" d="M 591.683844 168.144754 
C 592.168044 168.144754 592.632479 167.952379 592.97486 167.609998 
C 593.317242 167.267616 593.509617 166.803182 593.509617 166.318981 
C 593.509617 165.834781 593.317242 165.370347 592.97486 165.027965 
C 592.632479 164.685583 592.168044 164.493208 591.683844 164.493208 
C 591.199643 164.493208 590.735209 164.685583 590.392827 165.027965 
C 590.050446 165.370347 589.858071 165.834781 589.858071 166.318981 
C 589.858071 166.803182 590.050446 167.267616 590.392827 167.609998 
C 590.735209 167.952379 591.199643 168.144754 591.683844 168.144754 
z
" style="fill:#ff0000;stroke:#000000;stroke-width:0.5;"/>
    <path clip-path="url(#pd1943c6173)" d="M 618.174512 111.349808 
C 619.684728 111.349808 621.133292 110.749793 622.201176 109.681909 
C 623.269059 108.614025 623.869074 107.165461 623.869074 105.655245 
C 623.869074 104.14503 623.269059 102.696465 622.201176 101.628582 
C 621.133292 100.560698 619.684728 99.960683 618.174512 99.960683 
C 616.664297 99.960683 615.215732 100.560698 614.147849 101.628582 
C 613.079965 102.696465 612.47995 104.14503 612.47995 105.655245 
C 612.47995 107.165461 613.079965 108.614025 614.147849 109.681909 
C 615.215732 110.749793 616.664297 111.349808 618.174512 111.349808 
z
" style="fill:#ff0000;stroke:#000000;stroke-width:0.5;"/>
    <path clip-path="url(#pd1943c6173)" d="M 500.526499 85.95736 
C 501.366018 85.95736 502.171264 85.623816 502.764893 85.030187 
C 503.358522 84.436558 503.692066 83.631311 503.692066 82.791793 
C 503.692066 81.952275 503.358522 81.147028 502.764893 80.553399 
C 502.171264 79.95977 501.366018 79.626226 500.526499 79.626226 
C 499.686981 79.626226 498.881735 79.95977 498.288106 80.553399 
C 497.694477 81.147028 497.360932 81.952275 497.360932 82.791793 
C 497.360932 83.631311 497.694477 84.436558 498.288106 85.030187 
C 498.881735 85.623816 499.686981 85.95736 500.526499 85.95736 
z
" style="fill:#ff0000;stroke:#000000;stroke-width:0.5;"/>
    <path clip-path="url(#pd1943c6173)" d="M 450.124412 166.994432 
C 451.038039 166.994432 451.914369 166.631444 452.5604 165.985412 
C 453.206432 165.33938 453.56942 164.46305 453.56942 163.549423 
C 453.56942 162.635797 453.206432 161.759466 452.5604 161.113435 
C 451.914369 160.467403 451.038039 160.104415 450.124412 160.104415 
C 449.210785 160.104415 448.334455 160.467403 447.688423 161.113435 
C 447.042391 161.759466 446.679404 162.635797 446.679404 163.549423 
C 446.679404 164.46305 447.042391 165.33938 447.688423 165.985412 
C 448.334455 166.631444 449.210785 166.994432 450.124412 166.994432 
z
" style="fill:#ff0000;stroke:#000000;stroke-width:0.5;"/>
    <path clip-path="url(#pd1943c6173)" d="M 579.818956 122.734119 
C 581.281023 122.734119 582.683404 122.153234 583.717242 121.119397 
C 584.751079 120.085559 585.331964 118.683178 585.331964 117.221111 
C 585.331964 115.759044 584.751079 114.356663 583.717242 113.322826 
C 582.683404 112.288988 581.281023 111.708103 579.818956 111.708103 
C 578.356889 111.708103 576.954508 112.288988 575.920671 113.322826 
C 574.886833 114.356663 574.305948 115.759044 574.305948 117.221111 
C 574.305948 118.683178 574.886833 120.085559 575.920671 121.119397 
C 576.954508 122.153234 578.356889 122.734119 579.818956 122.734119 
z
" style="fill:#ff0000;stroke:#000000;stroke-width:0.5;"/>
    <path clip-path="url(#pd1943c6173)" d="M 445.682906 76.360295 
C 447.133797 76.360295 448.525459 75.78385 449.551394 74.757915 
C 450.577329 73.73198 451.153774 72.340318 451.153774 70.889427 
C 451.153774 69.438536 450.577329 68.046874 449.551394 67.020939 
C 448.525459 65.995004 447.133797 65.418559 445.682906 65.418559 
C 444.232015 65.418559 442.840353 65.995004 441.814418 67.020939 
C 440.788483 68.046874 440.212038 69.438536 440.212038 70.889427 
C 440.212038 72.340318 440.788483 73.73198 441.814418 74.757915 
C 442.840353 75.78385 444.232015 76.360295 445.682906 76.360295 
z
" style="fill:#ff0000;stroke:#000000;stroke-width:0.5;"/>
    <path clip-path="url(#pd1943c6173)" d="M 441.483167 93.982793 
C 443.057006 93.982793 444.566598 93.3575 445.679471 92.244627 
C 446.792343 91.131754 447.417637 89.622162 447.417637 88.048323 
C 447.417637 86.474483 446.792343 84.964891 445.679471 83.852019 
C 444.566598 82.739146 443.057006 82.113852 441.483167 82.113852 
C 439.909327 82.113852 438.399735 82.739146 437.286862 83.852019 
C 436.17399 84.964891 435.548696 86.474483 435.548696 88.048323 
C 435.548696 89.622162 436.17399 91.131754 437.286862 92.244627 
C 438.399735 93.3575 439.909327 93.982793 441.483167 93.982793 
z
" style="fill:#ff0000;stroke:#000000;stroke-width:0.5;"/>
    <path clip-path="url(#pd1943c6173)" d="M 537.291031 182.755966 
C 538.621982 182.755966 539.898601 182.227173 540.839726 181.286048 
C 541.780851 180.344923 542.309644 179.068304 542.309644 177.737352 
C 542.309644 176.406401 541.780851 175.129782 540.839726 174.188657 
C 539.898601 173.247532 538.621982 172.718739 537.291031 172.718739 
C 535.960079 172.718739 534.68346 173.247532 533.742335 174.188657 
C 532.80121 175.129782 532.272417 176.406401 532.272417 177.737352 
C 532.272417 179.068304 532.80121 180.344923 533.742335 181.286048 
C 534.68346 182.227173 535.960079 182.755966 537.291031 182.755966 
z
" style="fill:#ff0000;stroke:#000000;stroke-width:0.5;"/>
    <path clip-path="url(#pd1943c6173)" d="M 519.16007 64.82073 
C 520.531072 64.82073 521.846106 64.276025 522.815552 63.306579 
C 523.784997 62.337134 524.329702 61.0221 524.329702 59.651098 
C 524.329702 58.280095 523.784997 56.965061 522.815552 55.995616 
C 521.846106 55.026171 520.531072 54.481466 519.16007 54.481466 
C 517.789067 54.481466 516.474033 55.026171 515.504588 55.995616 
C 514.535143 56.965061 513.990438 58.280095 513.990438 59.651098 
C 513.990438 61.0221 514.535143 62.337134 515.504588 63.306579 
C 516.474033 64.276025 517.789067 64.82073 519.16007 64.82073 
z
" style="fill:#ff0000;stroke:#000000;stroke-width:0.5;"/>
    <path clip-path="url(#pd1943c6173)" d="M 661.873457 85.702746 
C 663.443975 85.702746 664.95038 85.078773 666.060904 83.968249 
C 667.171428 82.857725 667.795402 81.351319 667.795402 79.780801 
C 667.795402 78.210283 667.171428 76.703878 666.060904 75.593354 
C 664.95038 74.48283 663.443975 73.858856 661.873457 73.858856 
C 660.302939 73.858856 658.796534 74.48283 657.68601 75.593354 
C 656.575485 76.703878 655.951512 78.210283 655.951512 79.780801 
C 655.951512 81.351319 656.575485 82.857725 657.68601 83.968249 
C 658.796534 85.078773 660.302939 85.702746 661.873457 85.702746 
z
" style="fill:#ff0000;stroke:#000000;stroke-width:0.5;"/>
    <path clip-path="url(#pd1943c6173)" d="M 445.927015 43.76776 
C 447.47993 43.76776 448.969451 43.150781 450.067527 42.052704 
C 451.165604 40.954628 451.782584 39.465107 451.782584 37.912192 
C 451.782584 36.359277 451.165604 34.869757 450.067527 33.77168 
C 448.969451 32.673603 447.47993 32.056624 445.927015 32.056624 
C 444.3741 32.056624 442.88458 32.673603 441.786503 33.77168 
C 440.688427 34.869757 440.071447 36.359277 440.071447 37.912192 
C 440.071447 39.465107 440.688427 40.954628 441.786503 42.052704 
C 442.88458 43.150781 444.3741 43.76776 445.927015 43.76776 
z
" style="fill:#ff0000;stroke:#000000;stroke-width:0.5;"/>
    <path clip-path="url(#pd1943c6173)" d="M 643.73923 78.796175 
C 645.236454 78.796175 646.672557 78.201321 647.731254 77.142624 
C 648.789952 76.083927 649.384805 74.647824 649.384805 73.150599 
C 649.384805 71.653375 648.789952 70.217272 647.731254 69.158575 
C 646.672557 68.099877 645.236454 67.505024 643.73923 67.505024 
C 642.242006 67.505024 640.805902 68.099877 639.747205 69.158575 
C 638.688508 70.217272 638.093654 71.653375 638.093654 73.150599 
C 638.093654 74.647824 638.688508 76.083927 639.747205 77.142624 
C 640.805902 78.201321 642.242006 78.796175 643.73923 78.796175 
z
" style="fill:#ff0000;stroke:#000000;stroke-width:0.5;"/>
    <path clip-path="url(#pd1943c6173)" d="M 614.643489 40.727765 
C 615.558061 40.727765 616.435297 40.364402 617.081996 39.717702 
C 617.728696 39.071002 618.092059 38.193766 618.092059 37.279195 
C 618.092059 36.364624 617.728696 35.487388 617.081996 34.840688 
C 616.435297 34.193988 615.558061 33.830625 614.643489 33.830625 
C 613.728918 33.830625 612.851682 34.193988 612.204982 34.840688 
C 611.558282 35.487388 611.194919 36.364624 611.194919 37.279195 
C 611.194919 38.193766 611.558282 39.071002 612.204982 39.717702 
C 612.851682 40.364402 613.728918 40.727765 614.643489 40.727765 
z
" style="fill:#ff0000;stroke:#000000;stroke-width:0.5;"/>
    <path clip-path="url(#pd1943c6173)" d="M 463.016201 45.705853 
C 464.532731 45.705853 465.987351 45.103329 467.059699 44.030981 
C 468.132047 42.958633 468.734571 41.504013 468.734571 39.987483 
C 468.734571 38.470954 468.132047 37.016334 467.059699 35.943986 
C 465.987351 34.871637 464.532731 34.269114 463.016201 34.269114 
C 461.499672 34.269114 460.045052 34.871637 458.972704 35.943986 
C 457.900355 37.016334 457.297832 38.470954 457.297832 39.987483 
C 457.297832 41.504013 457.900355 42.958633 458.972704 44.030981 
C 460.045052 45.103329 461.499672 45.705853 463.016201 45.705853 
z
" style="fill:#ff0000;stroke:#000000;stroke-width:0.5;"/>
    <path clip-path="url(#pd1943c6173)" d="M 567.114842 168.908821 
C 568.617409 168.908821 570.058637 168.311845 571.121112 167.24937 
C 572.183587 166.186895 572.780563 164.745667 572.780563 163.2431 
C 572.780563 161.740533 572.183587 160.299305 571.121112 159.23683 
C 570.058637 158.174355 568.617409 157.577379 567.114842 157.577379 
C 565.612275 157.577379 564.171048 158.174355 563.108572 159.23683 
C 562.046097 160.299305 561.449121 161.740533 561.449121 163.2431 
C 561.449121 164.745667 562.046097 166.186895 563.108572 167.24937 
C 564.171048 168.311845 565.612275 168.908821 567.114842 168.908821 
z
" style="fill:#ff0000;stroke:#000000;stroke-width:0.5;"/>
    <path clip-path="url(#pd1943c6173)" d="M 562.450537 115.597598 
C 563.936803 115.597598 565.362396 115.007098 566.413345 113.956149 
C 567.464294 112.9052 568.054794 111.479607 568.054794 109.993341 
C 568.054794 108.507075 567.464294 107.081482 566.413345 106.030533 
C 565.362396 104.979584 563.936803 104.389084 562.450537 104.389084 
C 560.964271 104.389084 559.538678 104.979584 558.487729 106.030533 
C 557.43678 107.081482 556.84628 108.507075 556.84628 109.993341 
C 556.84628 111.479607 557.43678 112.9052 558.487729 113.956149 
C 559.538678 115.007098 560.964271 115.597598 562.450537 115.597598 
z
" style="fill:#ff0000;stroke:#000000;stroke-width:0.5;"/>
    <path clip-path="url(#pd1943c6173)" d="M 539.202868 76.310929 
C 540.4461 76.310929 541.638579 75.816988 542.517676 74.937891 
C 543.396774 74.058794 543.890715 72.866314 543.890715 71.623083 
C 543.890715 70.379851 543.396774 69.187372 542.517676 68.308275 
C 541.638579 67.429177 540.4461 66.935236 539.202868 66.935236 
C 537.959637 66.935236 536.767158 67.429177 535.88806 68.308275 
C 535.008963 69.187372 534.515022 70.379851 534.515022 71.623083 
C 534.515022 72.866314 535.008963 74.058794 535.88806 74.937891 
C 536.767158 75.816988 537.959637 76.310929 539.202868 76.310929 
z
" style="fill:#ff0000;stroke:#000000;stroke-width:0.5;"/>
    <path clip-path="url(#pd1943c6173)" d="M 539.105687 100.907133 
C 540.323128 100.907133 541.49087 100.423438 542.351731 99.562577 
C 543.212592 98.701717 543.696286 97.533975 543.696286 96.316534 
C 543.696286 95.099093 543.212592 93.931351 542.351731 93.070491 
C 541.49087 92.20963 540.323128 91.725936 539.105687 91.725936 
C 537.888247 91.725936 536.720505 92.20963 535.859644 93.070491 
C 534.998783 93.931351 534.515089 95.099093 534.515089 96.316534 
C 534.515089 97.533975 534.998783 98.701717 535.859644 99.562577 
C 536.720505 100.423438 537.888247 100.907133 539.105687 100.907133 
z
" style="fill:#ff0000;stroke:#000000;stroke-width:0.5;"/>
   </g>
   <g id="PathCollection_2">
    <path clip-path="url(#pd1943c6173)" d="M 185.93946 374.479341 
C 187.552434 374.479341 189.099562 373.838499 190.240107 372.697955 
C 191.380652 371.55741 192.021493 370.010282 192.021493 368.397308 
C 192.021493 366.784334 191.380652 365.237206 190.240107 364.096661 
C 189.099562 362.956116 187.552434 362.315275 185.93946 362.315275 
C 184.326486 362.315275 182.779358 362.956116 181.638813 364.096661 
C 180.498269 365.237206 179.857427 366.784334 179.857427 368.397308 
C 179.857427 370.010282 180.498269 371.55741 181.638813 372.697955 
C 182.779358 373.838499 184.326486 374.479341 185.93946 374.479341 
z
" style="fill:#0000ff;stroke:#000000;stroke-width:0.5;"/>
    <path clip-path="url(#pd1943c6173)" d="M 528.580337 85.080124 
C 529.86676 85.080124 531.100668 84.569022 532.010307 83.659384 
C 532.919946 82.749745 533.431047 81.515837 533.431047 80.229413 
C 533.431047 78.94299 532.919946 77.709082 532.010307 76.799443 
C 531.100668 75.889804 529.86676 75.378703 528.580337 75.378703 
C 527.293913 75.378703 526.060005 75.889804 525.150367 76.799443 
C 524.240728 77.709082 523.729627 78.94299 523.729627 80.229413 
C 523.729627 81.515837 524.240728 82.749745 525.150367 83.659384 
C 526.060005 84.569022 527.293913 85.080124 528.580337 85.080124 
z
" style="fill:#0000ff;stroke:#000000;stroke-width:0.5;"/>
    <path clip-path="url(#pd1943c6173)" d="M 405.83878 167.866022 
C 406.882904 167.866022 407.884403 167.451187 408.62271 166.71288 
C 409.361016 165.974574 409.775851 164.973074 409.775851 163.928951 
C 409.775851 162.884828 409.361016 161.883328 408.62271 161.145022 
C 407.884403 160.406715 406.882904 159.99188 405.83878 159.99188 
C 404.794657 159.99188 403.793158 160.406715 403.054851 161.145022 
C 402.316544 161.883328 401.90171 162.884828 401.90171 163.928951 
C 401.90171 164.973074 402.316544 165.974574 403.054851 166.71288 
C 403.793158 167.451187 404.794657 167.866022 405.83878 167.866022 
z
" style="fill:#0000ff;stroke:#000000;stroke-width:0.5;"/>
    <path clip-path="url(#pd1943c6173)" d="M 285.830468 328.603965 
C 287.798061 328.603965 289.685331 327.822232 291.07663 326.430933 
C 292.467928 325.039635 293.249661 323.152365 293.249661 321.184772 
C 293.249661 319.217179 292.467928 317.329909 291.07663 315.938611 
C 289.685331 314.547312 287.798061 313.765579 285.830468 313.765579 
C 283.862875 313.765579 281.975605 314.547312 280.584307 315.938611 
C 279.193009 317.329909 278.411276 319.217179 278.411276 321.184772 
C 278.411276 323.152365 279.193009 325.039635 280.584307 326.430933 
C 281.975605 327.822232 283.862875 328.603965 285.830468 328.603965 
z
" style="fill:#0000ff;stroke:#000000;stroke-width:0.5;"/>
    <path clip-path="url(#pd1943c6173)" d="M 677.646449 237.773735 
C 678.851371 237.773735 680.007106 237.295014 680.859115 236.443005 
C 681.711123 235.590996 682.189844 234.435262 682.189844 233.230339 
C 682.189844 232.025417 681.711123 230.869683 680.859115 230.017674 
C 680.007106 229.165665 678.851371 228.686944 677.646449 228.686944 
C 676.441526 228.686944 675.285792 229.165665 674.433783 230.017674 
C 673.581774 230.869683 673.103054 232.025417 673.103054 233.230339 
C 673.103054 234.435262 673.581774 235.590996 674.433783 236.443005 
C 675.285792 237.295014 676.441526 237.773735 677.646449 237.773735 
z
" style="fill:#0000ff;stroke:#000000;stroke-width:0.5;"/>
    <path clip-path="url(#pd1943c6173)" d="M 550.595292 295.499049 
C 551.180223 295.499049 551.741275 295.266654 552.154883 294.853045 
C 552.568491 294.439437 552.800886 293.878385 552.800886 293.293455 
C 552.800886 292.708525 552.568491 292.147473 552.154883 291.733864 
C 551.741275 291.320256 551.180223 291.087861 550.595292 291.087861 
C 550.010362 291.087861 549.44931 291.320256 549.035702 291.733864 
C 548.622094 292.147473 548.389698 292.708525 548.389698 293.293455 
C 548.389698 293.878385 548.622094 294.439437 549.035702 294.853045 
C 549.44931 295.266654 550.010362 295.499049 550.595292 295.499049 
z
" style="fill:#0000ff;stroke:#000000;stroke-width:0.5;"/>
    <path clip-path="url(#pd1943c6173)" d="M 359.577378 182.58377 
C 360.180216 182.58377 360.758444 182.34426 361.184715 181.917989 
C 361.610986 181.491718 361.850496 180.91349 361.850496 180.310652 
C 361.850496 179.707814 361.610986 179.129586 361.184715 178.703315 
C 360.758444 178.277044 360.180216 178.037534 359.577378 178.037534 
C 358.97454 178.037534 358.396312 178.277044 357.970041 178.703315 
C 357.54377 179.129586 357.30426 179.707814 357.30426 180.310652 
C 357.30426 180.91349 357.54377 181.491718 357.970041 181.917989 
C 358.396312 182.34426 358.97454 182.58377 359.577378 182.58377 
z
" style="fill:#0000ff;stroke:#000000;stroke-width:0.5;"/>
    <path clip-path="url(#pd1943c6173)" d="M 641.74626 97.151699 
C 642.40518 97.151699 643.037201 96.889907 643.503128 96.42398 
C 643.969055 95.958053 644.230847 95.326031 644.230847 94.667111 
C 644.230847 94.008191 643.969055 93.376169 643.503128 92.910242 
C 643.037201 92.444315 642.40518 92.182523 641.74626 92.182523 
C 641.087339 92.182523 640.455318 92.444315 639.989391 92.910242 
C 639.523464 93.376169 639.261672 94.008191 639.261672 94.667111 
C 639.261672 95.326031 639.523464 95.958053 639.989391 96.42398 
C 640.455318 96.889907 641.087339 97.151699 641.74626 97.151699 
z
" style="fill:#0000ff;stroke:#000000;stroke-width:0.5;"/>
    <path clip-path="url(#pd1943c6173)" d="M 584.292799 275.018391 
C 584.633828 275.018391 584.960936 274.882899 585.20208 274.641755 
C 585.443224 274.400611 585.578716 274.073503 585.578716 273.732474 
C 585.578716 273.391445 585.443224 273.064337 585.20208 272.823193 
C 584.960936 272.582049 584.633828 272.446556 584.292799 272.446556 
C 583.95177 272.446556 583.624662 272.582049 583.383518 272.823193 
C 583.142374 273.064337 583.006881 273.391445 583.006881 273.732474 
C 583.006881 274.073503 583.142374 274.400611 583.383518 274.641755 
C 583.624662 274.882899 583.95177 275.018391 584.292799 275.018391 
z
" style="fill:#0000ff;stroke:#000000;stroke-width:0.5;"/>
    <path clip-path="url(#pd1943c6173)" d="M 526.140501 238.548933 
C 528.005154 238.548933 529.793686 237.808099 531.112195 236.48959 
C 532.430703 235.171082 533.171538 233.38255 533.171538 231.517897 
C 533.171538 229.653244 532.430703 227.864712 531.112195 226.546203 
C 529.793686 225.227695 528.005154 224.486861 526.140501 224.486861 
C 524.275849 224.486861 522.487316 225.227695 521.168808 226.546203 
C 519.850299 227.864712 519.109465 229.653244 519.109465 231.517897 
C 519.109465 233.38255 519.850299 235.171082 521.168808 236.48959 
C 522.487316 237.808099 524.275849 238.548933 526.140501 238.548933 
z
" style="fill:#0000ff;stroke:#000000;stroke-width:0.5;"/>
    <path clip-path="url(#pd1943c6173)" d="M 216.396547 489.962385 
C 218.115695 489.962385 219.764663 489.27936 220.980285 488.063738 
C 222.195906 486.848117 222.878931 485.199149 222.878931 483.48 
C 222.878931 481.760851 222.195906 480.111883 220.980285 478.896262 
C 219.764663 477.68064 218.115695 476.997615 216.396547 476.997615 
C 214.677398 476.997615 213.02843 477.68064 211.812808 478.896262 
C 210.597187 480.111883 209.914162 481.760851 209.914162 483.48 
C 209.914162 485.199149 210.597187 486.848117 211.812808 488.063738 
C 213.02843 489.27936 214.677398 489.962385 216.396547 489.962385 
z
" style="fill:#0000ff;stroke:#000000;stroke-width:0.5;"/>
    <path clip-path="url(#pd1943c6173)" d="M 339.746703 41.246086 
C 340.810479 41.246086 341.830829 40.823444 342.583033 40.07124 
C 343.335237 39.319036 343.75788 38.298686 343.75788 37.23491 
C 343.75788 36.171133 343.335237 35.150783 342.583033 34.398579 
C 341.830829 33.646376 340.810479 33.223733 339.746703 33.223733 
C 338.682926 33.223733 337.662576 33.646376 336.910372 34.398579 
C 336.158169 35.150783 335.735526 36.171133 335.735526 37.23491 
C 335.735526 38.298686 336.158169 39.319036 336.910372 40.07124 
C 337.662576 40.823444 338.682926 41.246086 339.746703 41.246086 
z
" style="fill:#0000ff;stroke:#000000;stroke-width:0.5;"/>
    <path clip-path="url(#pd1943c6173)" d="M 465.830946 184.042215 
C 467.491205 184.042215 469.083688 183.382587 470.257669 182.208607 
C 471.431649 181.034626 472.091277 179.442143 472.091277 177.781884 
C 472.091277 176.121625 471.431649 174.529142 470.257669 173.355162 
C 469.083688 172.181181 467.491205 171.521553 465.830946 171.521553 
C 464.170687 171.521553 462.578204 172.181181 461.404224 173.355162 
C 460.230243 174.529142 459.570615 176.121625 459.570615 177.781884 
C 459.570615 179.442143 460.230243 181.034626 461.404224 182.208607 
C 462.578204 183.382587 464.170687 184.042215 465.830946 184.042215 
z
" style="fill:#0000ff;stroke:#000000;stroke-width:0.5;"/>
    <path clip-path="url(#pd1943c6173)" d="M 68.919176 102.559769 
C 70.349427 102.559769 71.721291 101.991524 72.732631 100.980184 
C 73.743972 99.968844 74.312216 98.59698 74.312216 97.166729 
C 74.312216 95.736478 73.743972 94.364614 72.732631 93.353274 
C 71.721291 92.341934 70.349427 91.773689 68.919176 91.773689 
C 67.488925 91.773689 66.117061 92.341934 65.105721 93.353274 
C 64.094381 94.364614 63.526136 95.736478 63.526136 97.166729 
C 63.526136 98.59698 64.094381 99.968844 65.105721 100.980184 
C 66.117061 101.991524 67.488925 102.559769 68.919176 102.559769 
z
" style="fill:#0000ff;stroke:#000000;stroke-width:0.5;"/>
    <path clip-path="url(#pd1943c6173)" d="M 345.494239 278.808583 
C 346.863766 278.808583 348.177385 278.264464 349.145787 277.296062 
C 350.114189 276.327661 350.658308 275.014041 350.658308 273.644514 
C 350.658308 272.274987 350.114189 270.961368 349.145787 269.992966 
C 348.177385 269.024565 346.863766 268.480446 345.494239 268.480446 
C 344.124712 268.480446 342.811093 269.024565 341.842691 269.992966 
C 340.874289 270.961368 340.33017 272.274987 340.33017 273.644514 
C 340.33017 275.014041 340.874289 276.327661 341.842691 277.296062 
C 342.811093 278.264464 344.124712 278.808583 345.494239 278.808583 
z
" style="fill:#0000ff;stroke:#000000;stroke-width:0.5;"/>
    <path clip-path="url(#pd1943c6173)" d="M 456.449111 355.534909 
C 457.291869 355.534909 458.100223 355.200077 458.696143 354.604158 
C 459.292063 354.008238 459.626894 353.199883 459.626894 352.357126 
C 459.626894 351.514368 459.292063 350.706013 458.696143 350.110094 
C 458.100223 349.514174 457.291869 349.179342 456.449111 349.179342 
C 455.606353 349.179342 454.797999 349.514174 454.202079 350.110094 
C 453.60616 350.706013 453.271328 351.514368 453.271328 352.357126 
C 453.271328 353.199883 453.60616 354.008238 454.202079 354.604158 
C 454.797999 355.200077 455.606353 355.534909 456.449111 355.534909 
z
" style="fill:#0000ff;stroke:#000000;stroke-width:0.5;"/>
    <path clip-path="url(#pd1943c6173)" d="M 666.44604 320.005047 
C 668.404343 320.005047 670.282703 319.227005 671.667432 317.842276 
C 673.052162 316.457546 673.830204 314.579187 673.830204 312.620883 
C 673.830204 310.66258 673.052162 308.784221 671.667432 307.399491 
C 670.282703 306.014762 668.404343 305.23672 666.44604 305.23672 
C 664.487737 305.23672 662.609377 306.014762 661.224648 307.399491 
C 659.839918 308.784221 659.061876 310.66258 659.061876 312.620883 
C 659.061876 314.579187 659.839918 316.457546 661.224648 317.842276 
C 662.609377 319.227005 664.487737 320.005047 666.44604 320.005047 
z
" style="fill:#0000ff;stroke:#000000;stroke-width:0.5;"/>
    <path clip-path="url(#pd1943c6173)" d="M 498.236334 152.140735 
C 499.239867 152.140735 500.202433 151.742027 500.912038 151.032422 
C 501.621643 150.322817 502.020351 149.36025 502.020351 148.356717 
C 502.020351 147.353184 501.621643 146.390618 500.912038 145.681013 
C 500.202433 144.971408 499.239867 144.5727 498.236334 144.5727 
C 497.232801 144.5727 496.270234 144.971408 495.560629 145.681013 
C 494.851024 146.390618 494.452316 147.353184 494.452316 148.356717 
C 494.452316 149.36025 494.851024 150.322817 495.560629 151.032422 
C 496.270234 151.742027 497.232801 152.140735 498.236334 152.140735 
z
" style="fill:#0000ff;stroke:#000000;stroke-width:0.5;"/>
    <path clip-path="url(#pd1943c6173)" d="M 525.216634 362.395543 
C 526.802311 362.395543 528.323257 361.765547 529.4445 360.644304 
C 530.565743 359.52306 531.195739 358.002115 531.195739 356.416438 
C 531.195739 354.830761 530.565743 353.309815 529.4445 352.188572 
C 528.323257 351.067329 526.802311 350.437333 525.216634 350.437333 
C 523.630957 350.437333 522.110012 351.067329 520.988769 352.188572 
C 519.867526 353.309815 519.237529 354.830761 519.237529 356.416438 
C 519.237529 358.002115 519.867526 359.52306 520.988769 360.644304 
C 522.110012 361.765547 523.630957 362.395543 525.216634 362.395543 
z
" style="fill:#0000ff;stroke:#000000;stroke-width:0.5;"/>
    <path clip-path="url(#pd1943c6173)" d="M 536.556338 254.608347 
C 537.521707 254.608347 538.447667 254.224802 539.130285 253.542183 
C 539.812904 252.859564 540.196449 251.933605 540.196449 250.968236 
C 540.196449 250.002867 539.812904 249.076907 539.130285 248.394289 
C 538.447667 247.71167 537.521707 247.328125 536.556338 247.328125 
C 535.590969 247.328125 534.66501 247.71167 533.982391 248.394289 
C 533.299772 249.076907 532.916227 250.002867 532.916227 250.968236 
C 532.916227 251.933605 533.299772 252.859564 533.982391 253.542183 
C 534.66501 254.224802 535.590969 254.608347 536.556338 254.608347 
z
" style="fill:#0000ff;stroke:#000000;stroke-width:0.5;"/>
   </g>
   <g id="patch_3">
    <path d="M 38.482813 506.16 
L 38.482813 7.2 
" style="fill:none;stroke:#ffffff;stroke-linecap:square;stroke-linejoin:miter;"/>
   </g>
   <g id="patch_4">
    <path d="M 708.082813 506.16 
L 708.082813 7.2 
" style="fill:none;stroke:#ffffff;stroke-linecap:square;stroke-linejoin:miter;"/>
   </g>
   <g id="patch_5">
    <path d="M 38.482812 506.16 
L 708.082813 506.16 
" style="fill:none;stroke:#ffffff;stroke-linecap:square;stroke-linejoin:miter;"/>
   </g>
   <g id="patch_6">
    <path d="M 38.482812 7.2 
L 708.082813 7.2 
" style="fill:none;stroke:#ffffff;stroke-linecap:square;stroke-linejoin:miter;"/>
   </g>
  </g>
 </g>
 <defs>
  <clipPath id="pd1943c6173">
   <rect height="498.96" width="669.6" x="38.482813" y="7.2"/>
  </clipPath>
 </defs>
</svg>
